<svg xmlns="http://www.w3.org/2000/svg" xmlns:xlink="http://www.w3.org/1999/xlink" viewBox="0 0 300 400"><defs><style>.cls-1{fill:none;}.cls-2{isolation:isolate;}.cls-3{fill:gray;}.cls-4{fill:#878787;}.cls-5{fill:#e6e6e6;}.cls-6{fill:#888;}.cls-7{clip-path:url(#clip-path);}.cls-8{fill:#858585;}.cls-9{fill:#8e8e8e;}.cls-10{clip-path:url(#clip-path-2);}.cls-11{clip-path:url(#clip-path-3);}.cls-12{clip-path:url(#clip-path-4);}.cls-13{clip-path:url(#clip-path-5);}.cls-14{fill:#8f8f8f;}.cls-15{fill:#8a8a8a;}.cls-16{clip-path:url(#clip-path-6);}.cls-17{clip-path:url(#clip-path-7);}.cls-18{clip-path:url(#clip-path-8);}.cls-19{clip-path:url(#clip-path-9);}.cls-20{clip-path:url(#clip-path-10);}.cls-21{clip-path:url(#clip-path-11);}.cls-22{clip-path:url(#clip-path-12);}.cls-23{clip-path:url(#clip-path-13);}.cls-24{clip-path:url(#clip-path-14);}.cls-25{clip-path:url(#clip-path-15);}.cls-26{clip-path:url(#clip-path-16);}.cls-27{clip-path:url(#clip-path-17);}.cls-28{clip-path:url(#clip-path-18);}.cls-29{clip-path:url(#clip-path-19);}.cls-30{fill:url(#radial-gradient);}.cls-31{fill:url(#radial-gradient-2);}.cls-32{fill:url(#radial-gradient-3);}.cls-33{fill:url(#radial-gradient-4);}.cls-34{fill:#40a848;}.cls-35{fill:url(#radial-gradient-5);}.cls-36{fill:url(#radial-gradient-6);}.cls-37{fill:url(#radial-gradient-7);}.cls-38,.cls-44{fill:#008dc0;}.cls-39{fill:url(#radial-gradient-8);}.cls-40{fill:url(#radial-gradient-9);}.cls-41,.cls-48{fill:url(#radial-gradient-10);}.cls-42{fill:url(#radial-gradient-11);}.cls-43,.cls-49{fill:url(#radial-gradient-12);}.cls-44,.cls-55{opacity:0.3;}.cls-44,.cls-46,.cls-47,.cls-48,.cls-49,.cls-50,.cls-51,.cls-54,.cls-56{mix-blend-mode:multiply;}.cls-45{fill:url(#radial-gradient-13);}.cls-46,.cls-54,.cls-60{fill:#aeaaab;}.cls-46{opacity:0.76;}.cls-47{fill:url(#radial-gradient-14);}.cls-50{fill:url(#radial-gradient-17);}.cls-51{fill:url(#radial-gradient-18);}.cls-52{fill:url(#radial-gradient-19);}.cls-53{fill:url(#radial-gradient-20);}.cls-54,.cls-59{opacity:0.6;}.cls-55{fill:url(#radial-gradient-21);}.cls-56{opacity:0.2;}.cls-57{fill:#94938d;}.cls-58{fill:url(#radial-gradient-22);}</style><clipPath id="clip-path"><path class="cls-1" d="M140.3,364h-1.74a15.41,15.41,0,0,0,3.84-10.56h1.74A15.46,15.46,0,0,1,140.3,364Z"/></clipPath><clipPath id="clip-path-2"><path class="cls-1" d="M136.91,327.08h-1.73a15.19,15.19,0,0,0-2.83-6.88h1.73A15.08,15.08,0,0,1,136.91,327.08Z"/></clipPath><clipPath id="clip-path-3"><path class="cls-1" d="M144.14,353.43H142.4c0-6.8-4.85-14.34-15.67-15.86h1.73C139.29,339.09,144.14,346.63,144.14,353.43Z"/></clipPath><clipPath id="clip-path-4"><path class="cls-1" d="M135.2,361h-1.74a9.6,9.6,0,0,0,3-7.23c0-5.38-4-9.41-10.3-10.27h1.74c6.26.86,10.3,4.89,10.3,10.27A9.64,9.64,0,0,1,135.2,361Z"/></clipPath><clipPath id="clip-path-5"><path class="cls-1" d="M121.78,365.24h-1.73c6,0,10.53-1.42,13.41-4.24h1.74C132.32,363.82,127.8,365.24,121.78,365.24Z"/></clipPath><clipPath id="clip-path-6"><path class="cls-1" d="M121.76,370.93H120c7.87,0,14.62-2.53,18.53-6.94h1.74C136.39,368.4,129.63,370.93,121.76,370.93Z"/></clipPath><clipPath id="clip-path-7"><path class="cls-1" d="M134.08,320.2h-1.73c-2.71-3.22-7.3-5-12.91-5h1.74C126.79,315.19,131.38,317,134.08,320.2Z"/></clipPath><clipPath id="clip-path-8"><path class="cls-1" d="M142.69,326.51H141a18.57,18.57,0,0,0-4.26-10.07c-3.64-4.34-9.93-6.82-17.25-6.82h1.74c7.32,0,13.6,2.48,17.25,6.82A18.57,18.57,0,0,1,142.69,326.51Z"/></clipPath><clipPath id="clip-path-9"><path class="cls-1" d="M117.38,336h-1.74c-8-1.07-11.73-4.39-11.73-10.45,0-3.23,1.72-6.28,4.86-8.57,2.61-1.93,6-2.82,10.67-2.82h1.74c-4.67,0-8.07.89-10.67,2.82-3.14,2.29-4.86,5.34-4.86,8.57C105.65,331.64,109.37,335,117.38,336Z"/></clipPath><clipPath id="clip-path-10"><path class="cls-1" d="M105,314.43h-1.73c4-3.8,9.56-5.81,16.18-5.81h1.74C114.56,308.62,109,310.63,105,314.43Z"/></clipPath><clipPath id="clip-path-11"><path class="cls-1" d="M121.78,366.25h-1.73c-6.07,0-10.81-1.65-14.11-4.88a14.77,14.77,0,0,1-4.44-9h1.74a14.81,14.81,0,0,0,4.43,9C111,364.6,115.72,366.25,121.78,366.25Z"/></clipPath><clipPath id="clip-path-12"><path class="cls-1" d="M121.76,371.92H120c-8.3,0-15.26-2.75-19.62-7.74h1.74C106.5,369.17,113.47,371.92,121.76,371.92Z"/></clipPath><clipPath id="clip-path-13"><path class="cls-1" d="M99.71,326.19H98a15.79,15.79,0,0,1,5.28-11.76H105A15.82,15.82,0,0,0,99.71,326.19Z"/></clipPath><clipPath id="clip-path-14"><path class="cls-1" d="M116.59,342h-1.74c-6.12-.75-10.66-2.8-13.49-6.08A14.38,14.38,0,0,1,98,326.19h1.73a14.39,14.39,0,0,0,3.39,9.69C105.93,339.16,110.46,341.21,116.59,342Z"/></clipPath><clipPath id="clip-path-15"><path class="cls-1" d="M102.15,364.18h-1.74a18.32,18.32,0,0,1-4.91-12.3h1.74A18.27,18.27,0,0,0,102.15,364.18Z"/></clipPath><clipPath id="clip-path-16"><path class="cls-1" d="M201.39,330.8h-1.73c0-13.46-7.31-21.18-20-21.18h1.74C194.09,309.62,201.39,317.34,201.39,330.8Z"/></clipPath><clipPath id="clip-path-17"><path class="cls-1" d="M195.58,331.15h-1.74c0-10.74-4.76-16-14.55-16H181C190.82,315.19,195.58,320.41,195.58,331.15Z"/></clipPath><clipPath id="clip-path-18"><path class="cls-1" d="M162.15,319.47h-1.73a22.5,22.5,0,0,1,19.2-10.85h1.74A22.52,22.52,0,0,0,162.15,319.47Z"/></clipPath><clipPath id="clip-path-19"><path class="cls-1" d="M161.17,340.28h-1.74c0-16.33,7.43-26.09,19.86-26.09H181C168.6,314.19,161.17,324,161.17,340.28Z"/></clipPath><radialGradient id="radial-gradient" cx="225.4" cy="-92.31" r="99.63" gradientTransform="translate(-32.94 154.79) scale(0.7)" gradientUnits="userSpaceOnUse"><stop offset="0.34" stop-color="#25326c"/><stop offset="0.35" stop-color="#25326b"/><stop offset="0.5" stop-color="#1b2351"/><stop offset="0.66" stop-color="#14193e"/><stop offset="0.83" stop-color="#101333"/><stop offset="1" stop-color="#0f112f"/></radialGradient><radialGradient id="radial-gradient-2" cx="270.15" cy="9.21" r="99.34" gradientTransform="translate(-32.94 154.79) scale(0.7)" gradientUnits="userSpaceOnUse"><stop offset="0.34" stop-color="#0e5028"/><stop offset="0.54" stop-color="#0c3f21"/><stop offset="0.76" stop-color="#0b341d"/><stop offset="1" stop-color="#0b301b"/></radialGradient><radialGradient id="radial-gradient-3" cx="285.28" cy="-76.99" r="94.45" gradientTransform="translate(-32.94 154.79) scale(0.7)" gradientUnits="userSpaceOnUse"><stop offset="0.07" stop-color="#bbdcf2"/><stop offset="0.15" stop-color="#b0d7ee"/><stop offset="0.4" stop-color="#60b5d9"/><stop offset="0.72" stop-color="#008dc0"/><stop offset="1" stop-color="#005e92"/></radialGradient><radialGradient id="radial-gradient-4" cx="197.61" cy="-68.15" r="91.75" gradientTransform="translate(-32.94 154.79) scale(0.7)" gradientUnits="userSpaceOnUse"><stop offset="0" stop-color="#fff"/><stop offset="0.15" stop-color="#f5e9e4"/><stop offset="0.69" stop-color="#aeaaab"/></radialGradient><radialGradient id="radial-gradient-5" cx="258.16" cy="-21.17" r="133.67" gradientTransform="translate(-32.94 154.79) scale(0.7)" gradientUnits="userSpaceOnUse"><stop offset="0.01" stop-color="#40a848"/><stop offset="0.09" stop-color="#65b648"/><stop offset="0.18" stop-color="#89c347"/><stop offset="0.27" stop-color="#a3cd47"/><stop offset="0.35" stop-color="#b3d347"/><stop offset="0.41" stop-color="#b9d547"/><stop offset="0.46" stop-color="#b3d347"/><stop offset="0.53" stop-color="#a0cc47"/><stop offset="0.62" stop-color="#83c147"/><stop offset="0.72" stop-color="#59b148"/><stop offset="0.77" stop-color="#40a848"/><stop offset="1" stop-color="#10432c"/></radialGradient><radialGradient id="radial-gradient-6" cx="295.97" cy="-1.81" r="90.62" xlink:href="#radial-gradient-4"/><radialGradient id="radial-gradient-7" cx="265.46" cy="-63.42" r="119.21" gradientTransform="translate(-32.94 154.79) scale(0.7)" gradientUnits="userSpaceOnUse"><stop offset="0.14" stop-color="#bbdcf2"/><stop offset="0.23" stop-color="#b0d7ee"/><stop offset="0.45" stop-color="#60b5d9"/><stop offset="0.72" stop-color="#008dc0"/><stop offset="1" stop-color="#005e92"/></radialGradient><radialGradient id="radial-gradient-8" cx="265.87" cy="-165.45" r="0.18" xlink:href="#radial-gradient-3"/><radialGradient id="radial-gradient-9" cx="269.74" cy="-48.27" r="106.85" xlink:href="#radial-gradient-3"/><radialGradient id="radial-gradient-10" cx="197.63" cy="-59.15" r="65.5" xlink:href="#radial-gradient-4"/><radialGradient id="radial-gradient-11" cx="283.53" cy="-10.77" r="5.73" xlink:href="#radial-gradient-4"/><radialGradient id="radial-gradient-12" cx="299.47" cy="-1.78" r="87.42" xlink:href="#radial-gradient-4"/><radialGradient id="radial-gradient-13" cx="191.99" cy="47.22" r="135.8" gradientTransform="translate(-32.94 154.79) scale(0.7)" gradientUnits="userSpaceOnUse"><stop offset="0.1" stop-color="#b9d547"/><stop offset="0.18" stop-color="#94c747"/><stop offset="0.27" stop-color="#70ba48"/><stop offset="0.36" stop-color="#56b048"/><stop offset="0.44" stop-color="#46aa48"/><stop offset="0.5" stop-color="#40a848"/><stop offset="0.58" stop-color="#46aa48"/><stop offset="0.68" stop-color="#59b148"/><stop offset="0.8" stop-color="#76bc48"/><stop offset="0.93" stop-color="#a0cc47"/><stop offset="1" stop-color="#b9d547"/></radialGradient><radialGradient id="radial-gradient-14" cx="269.74" cy="-48.27" r="178.49" gradientTransform="translate(-32.94 154.79) scale(0.7)" gradientUnits="userSpaceOnUse"><stop offset="0.15" stop-color="#b0d7ee"/><stop offset="0.36" stop-color="#60b5d9"/><stop offset="0.61" stop-color="#008dc0"/><stop offset="1" stop-color="#005e92"/></radialGradient><radialGradient id="radial-gradient-17" cx="271.82" cy="-70.92" r="115.42" xlink:href="#radial-gradient-3"/><radialGradient id="radial-gradient-18" cx="295.06" cy="-141.65" r="82.1" xlink:href="#radial-gradient-3"/><radialGradient id="radial-gradient-19" cx="286.41" cy="-68.61" r="186.53" gradientTransform="translate(-32.94 154.79) scale(0.7)" gradientUnits="userSpaceOnUse"><stop offset="0" stop-color="#fff"/><stop offset="0.46" stop-color="#bbdcf2" stop-opacity="0"/><stop offset="1" stop-color="#fff" stop-opacity="0"/></radialGradient><radialGradient id="radial-gradient-20" cx="266.74" cy="-59.84" r="151.48" gradientTransform="translate(-32.94 154.79) scale(0.7)" gradientUnits="userSpaceOnUse"><stop offset="0.28" stop-color="#bbdcf2" stop-opacity="0"/><stop offset="0.33" stop-color="#a4d2ec" stop-opacity="0.08"/><stop offset="0.43" stop-color="#69b9dc" stop-opacity="0.29"/><stop offset="0.57" stop-color="#0a91c3" stop-opacity="0.62"/><stop offset="0.59" stop-color="#008dc0" stop-opacity="0.65"/><stop offset="0.6" stop-color="#0386b9" stop-opacity="0.67"/><stop offset="0.7" stop-color="#16588f" stop-opacity="0.83"/><stop offset="0.8" stop-color="#213c75" stop-opacity="0.92"/><stop offset="0.88" stop-color="#25326c" stop-opacity="0.95"/></radialGradient><radialGradient id="radial-gradient-21" cx="214.55" cy="50.03" r="65.83" gradientTransform="translate(-32.94 154.79) scale(0.7)" gradientUnits="userSpaceOnUse"><stop offset="0.41" stop-color="#10432c"/><stop offset="0.7" stop-color="#0e3d26"/><stop offset="1" stop-color="#0b301b"/></radialGradient><radialGradient id="radial-gradient-22" cx="279.51" cy="-92.11" r="127.16" gradientTransform="translate(-32.94 154.79) scale(0.7)" gradientUnits="userSpaceOnUse"><stop offset="0.57" stop-color="#005e92" stop-opacity="0"/><stop offset="0.66" stop-color="#05588c" stop-opacity="0.14"/><stop offset="0.83" stop-color="#14477e" stop-opacity="0.51"/><stop offset="1" stop-color="#25326c" stop-opacity="0.95"/></radialGradient></defs><title>loader</title><g class="cls-2"><g id="logo-3d"><g class="cls-2"><polygon class="cls-3" points="88.79 366.69 87.06 366.69 87.08 361.67 88.82 361.67 88.79 366.69"/><rect class="cls-3" x="87.05" y="319.22" width="1.74" height="5"/><polygon class="cls-4" points="44.09 342.93 42.36 342.93 87.05 324.22 88.78 324.22 44.09 342.93"/><polygon class="cls-3" points="88.82 361.67 87.08 361.67 42.36 342.93 44.09 342.93 88.82 361.67"/><polygon class="cls-4" points="37.79 339.87 36.06 339.87 88.03 317.72 89.77 317.72 37.79 339.87"/><polygon class="cls-3" points="89.77 368.18 88.03 368.18 35.38 345.74 37.12 345.74 89.77 368.18"/><path class="cls-5" d="M46.67,342.93,89.81,361l0,7.17L37.12,345.73v-5.62l.67-.24,52-22.15v7.16l-.65.28Zm42.12,23.76,0-5L44.1,342.93l44.68-18.71v-5L38.1,340.81v4.26l50.69,21.62"/><polygon class="cls-6" points="37.12 340.11 35.38 340.11 36.06 339.87 37.79 339.87 37.12 340.11"/><rect class="cls-3" x="35.38" y="340.11" width="1.74" height="5.62"/></g><g class="cls-2"><rect class="cls-3" x="261.89" y="340.22" width="1.74" height="4.27"/><polygon class="cls-4" points="212.95 366.11 211.21 366.11 261.89 344.48 263.63 344.48 212.95 366.11"/><polygon class="cls-3" points="263.63 340.22 261.89 340.22 211.21 318.64 212.95 318.64 263.63 340.22"/><polygon class="cls-4" points="212.27 360.31 210.53 360.31 253.36 342.35 255.09 342.35 212.27 360.31"/><rect class="cls-3" x="210.23" y="360.44" width="1.74" height="7.17"/><polygon class="cls-4" points="211.97 360.44 210.23 360.44 210.53 360.31 212.27 360.31 211.97 360.44"/><polygon class="cls-3" points="255.09 342.35 253.36 342.35 210.23 324.31 211.97 324.31 255.09 342.35"/><rect class="cls-3" x="210.23" y="317.13" width="1.74" height="7.17"/><path class="cls-5" d="M212,317.13l52.64,22.42v5.6L212,367.61v-7.17l.3-.13,42.82-18-43.12-18Zm51.66,27.35v-4.26L213,318.64v5l44.73,18.71L213,361.11v5l50.68-21.63"/></g><g class="cls-2"><g class="cls-2"><g class="cls-7"><g class="cls-2"><path class="cls-8" d="M140.3,364h-1.74a15.41,15.41,0,0,0,3.84-10.56h1.74A15.46,15.46,0,0,1,140.3,364"/></g></g></g><polygon class="cls-9" points="137.82 326.51 136.08 326.51 140.95 326.51 142.69 326.51 137.82 326.51"/><polygon class="cls-3" points="136.97 327.51 135.24 327.51 135.18 327.08 136.91 327.08 136.97 327.51"/><g class="cls-2"><g class="cls-10"><g class="cls-2"><path class="cls-8" d="M136.91,327.08h-1.73a15.19,15.19,0,0,0-2.83-6.88h1.73a15.08,15.08,0,0,1,2.83,6.88"/></g></g></g><g class="cls-2"><g class="cls-11"><g class="cls-2"><path class="cls-8" d="M144.14,353.43H142.4c0-6.8-4.85-14.34-15.67-15.86h1.73c10.83,1.52,15.68,9.06,15.68,15.86"/></g></g></g><g class="cls-2"><g class="cls-12"><g class="cls-2"><path class="cls-8" d="M135.2,361h-1.74a9.6,9.6,0,0,0,3-7.23c0-5.38-4-9.41-10.3-10.27h1.74c6.26.86,10.3,4.89,10.3,10.27a9.64,9.64,0,0,1-3,7.23"/></g></g></g><g class="cls-2"><g class="cls-13"><g class="cls-2"><path class="cls-14" d="M121.78,365.24h-1.73a29.84,29.84,0,0,0,5.56-.48h1.74a29.87,29.87,0,0,1-5.57.48"/><path class="cls-15" d="M127.35,364.76h-1.74a18.65,18.65,0,0,0,4.44-1.41h1.73a18.42,18.42,0,0,1-4.43,1.41"/><path class="cls-8" d="M131.78,363.35h-1.73a12.52,12.52,0,0,0,3.41-2.35h1.74a12.57,12.57,0,0,1-3.42,2.35"/></g></g></g><g class="cls-2"><g class="cls-16"><g class="cls-2"><path class="cls-14" d="M121.76,370.93H120a33.58,33.58,0,0,0,6.29-.58h1.73a33.43,33.43,0,0,1-6.29.58"/><path class="cls-15" d="M128.05,370.35h-1.73a26.23,26.23,0,0,0,6.33-2h1.74a26.16,26.16,0,0,1-6.34,2"/><path class="cls-8" d="M134.39,368.32h-1.74a18.41,18.41,0,0,0,5.91-4.33h1.74a18.52,18.52,0,0,1-5.91,4.33"/></g></g></g><g class="cls-2"><g class="cls-17"><g class="cls-2"><path class="cls-8" d="M134.08,320.2h-1.73c-2.71-3.22-7.3-5-12.91-5h1.74c5.61,0,10.2,1.79,12.9,5"/></g></g></g><g class="cls-2"><g class="cls-18"><g class="cls-2"><path class="cls-8" d="M142.69,326.51H141a18.57,18.57,0,0,0-4.26-10.07c-3.64-4.34-9.93-6.82-17.25-6.82h1.74c7.32,0,13.6,2.48,17.25,6.82a18.57,18.57,0,0,1,4.26,10.07"/></g></g></g><polygon class="cls-3" points="128.47 337.57 126.73 337.57 115.64 336.03 117.38 336.03 128.47 337.57"/><polygon class="cls-3" points="127.9 343.5 126.16 343.5 114.85 341.96 116.59 341.96 127.9 343.5"/><g class="cls-2"><g class="cls-19"><g class="cls-2"><path class="cls-8" d="M117.38,336h-1.74c-8-1.07-11.73-4.39-11.73-10.45,0-3.23,1.72-6.28,4.86-8.57a12.14,12.14,0,0,1,2-1.22h1.73a12.47,12.47,0,0,0-2,1.22c-3.14,2.29-4.86,5.34-4.86,8.57,0,6.06,3.72,9.38,11.73,10.45"/><path class="cls-15" d="M112.53,315.79H110.8a15.1,15.1,0,0,1,3.73-1.18h1.74a15.18,15.18,0,0,0-3.74,1.18"/><path class="cls-14" d="M116.27,314.61h-1.74a26.13,26.13,0,0,1,4.91-.42h1.74a26.13,26.13,0,0,0-4.91.42"/></g></g></g><g class="cls-2"><g class="cls-20"><g class="cls-2"><path class="cls-8" d="M105,314.43h-1.73a19.39,19.39,0,0,1,5.11-3.5h1.74a19.61,19.61,0,0,0-5.12,3.5"/><path class="cls-15" d="M110.11,310.93h-1.74a22.9,22.9,0,0,1,5.61-1.81h1.74a22.76,22.76,0,0,0-5.61,1.81"/><path class="cls-14" d="M115.72,309.12H114a29.09,29.09,0,0,1,5.46-.5h1.74a29.09,29.09,0,0,0-5.46.5"/></g></g></g><g class="cls-2"><g class="cls-21"><g class="cls-2"><path class="cls-8" d="M121.78,366.25h-1.73c-6.07,0-10.81-1.65-14.11-4.88a14.77,14.77,0,0,1-4.44-9h1.74a14.81,14.81,0,0,0,4.43,9c3.31,3.23,8,4.88,14.11,4.88"/></g></g></g><g class="cls-2"><g class="cls-22"><g class="cls-2"><path class="cls-8" d="M121.76,371.92H120c-8.3,0-15.26-2.75-19.62-7.74h1.74c4.35,5,11.32,7.74,19.61,7.74"/></g></g></g><g class="cls-2"><g class="cls-23"><g class="cls-2"><path class="cls-8" d="M99.71,326.19H98a15.79,15.79,0,0,1,5.28-11.76H105a15.82,15.82,0,0,0-5.28,11.76"/></g></g></g><g class="cls-2"><g class="cls-24"><g class="cls-2"><path class="cls-8" d="M116.59,342h-1.74c-6.12-.75-10.66-2.8-13.49-6.08A14.38,14.38,0,0,1,98,326.19h1.73a14.39,14.39,0,0,0,3.39,9.69c2.83,3.28,7.36,5.33,13.49,6.08"/></g></g></g><g class="cls-2"><g class="cls-25"><g class="cls-2"><path class="cls-8" d="M102.15,364.18h-1.74a18.32,18.32,0,0,1-4.91-12.3h1.74a18.27,18.27,0,0,0,4.91,12.3"/></g></g></g><polygon class="cls-3" points="97.24 351.88 95.5 351.88 95.49 351.38 97.23 351.38 97.24 351.88"/><polygon class="cls-9" points="97.23 351.38 95.49 351.38 102.4 351.38 104.14 351.38 97.23 351.38"/><path class="cls-5" d="M145.13,353.42a16.49,16.49,0,0,1-4.1,11.23c-4.09,4.63-11.12,7.27-19.27,7.27s-15.26-2.75-19.61-7.74a18.27,18.27,0,0,1-4.91-12.3v-.5h6.91l0,.46a13.68,13.68,0,0,0,4.17,8.8c3.12,3.06,7.64,4.6,13.43,4.6,6,0,10.54-1.42,13.42-4.24a9.64,9.64,0,0,0,3-7.23c0-5.38-4-9.41-10.3-10.27L116.59,342c-6.13-.75-10.66-2.8-13.49-6.08a14.39,14.39,0,0,1-3.39-9.69A15.82,15.82,0,0,1,105,314.43c4-3.8,9.57-5.81,16.19-5.81,7.6,0,14.16,2.61,18,7.17A19.55,19.55,0,0,1,143.72,327l0,.54H137l-.06-.43a15.08,15.08,0,0,0-2.83-6.88c-2.7-3.22-7.29-5-12.9-5-4.51,0-7.63.81-10.1,2.63-2.91,2.13-4.45,4.82-4.45,7.76,0,3.73,1.24,8.17,10.88,9.46l11.09,1.54C140,338.18,145.13,346.19,145.13,353.42ZM140.3,364a15.46,15.46,0,0,0,3.84-10.56c0-6.8-4.85-14.34-15.68-15.86L117.38,336c-8-1.07-11.73-4.39-11.73-10.45,0-3.23,1.72-6.28,4.86-8.57,2.6-1.93,6-2.82,10.67-2.82,5.9,0,10.76,1.92,13.68,5.39a16.27,16.27,0,0,1,3,6.93h4.87a18.57,18.57,0,0,0-4.26-10.07c-3.65-4.34-9.93-6.82-17.25-6.82-6.36,0-11.73,1.91-15.52,5.55a14.76,14.76,0,0,0-5,11,13.44,13.44,0,0,0,3.14,9c2.66,3.08,7,5,12.87,5.74L128,342.51c6.78.93,11.17,5.35,11.17,11.26a10.51,10.51,0,0,1-3.29,7.93c-3.08,3-7.83,4.55-14.12,4.55-6.06,0-10.8-1.65-14.11-4.88a14.81,14.81,0,0,1-4.43-9h-5a17.26,17.26,0,0,0,4.64,11.12c4.17,4.79,10.87,7.43,18.88,7.43s14.63-2.53,18.54-6.94"/></g><g class="cls-2"><rect class="cls-3" x="199.66" y="330.8" width="1.74" height="38.58"/><polygon class="cls-9" points="196.56 369.39 194.82 369.39 199.66 369.39 201.39 369.39 196.56 369.39"/><rect class="cls-3" x="193.84" y="331.15" width="1.74" height="39.23"/><g class="cls-2"><g class="cls-26"><g class="cls-2"><path class="cls-8" d="M201.39,330.8h-1.73c0-13.46-7.31-21.18-20-21.18h1.74c12.73,0,20,7.72,20,21.18"/></g></g></g><g class="cls-2"><g class="cls-27"><g class="cls-2"><path class="cls-8" d="M195.58,331.15h-1.74c0-10.74-4.76-16-14.55-16H181c9.8,0,14.56,5.22,14.56,16"/></g></g></g><g class="cls-2"><g class="cls-28"><g class="cls-2"><path class="cls-8" d="M162.15,319.47h-1.73a21.69,21.69,0,0,1,9.51-8.62h1.74a21.72,21.72,0,0,0-9.52,8.62"/><path class="cls-15" d="M171.67,310.85h-1.74A22.91,22.91,0,0,1,175.5,309h1.74a22.77,22.77,0,0,0-5.57,1.84"/><path class="cls-14" d="M177.24,309H175.5a21.79,21.79,0,0,1,4.12-.39h1.74a21.79,21.79,0,0,0-4.12.39"/></g></g></g><rect class="cls-3" x="159.43" y="340.28" width="1.74" height="29.11"/><g class="cls-2"><g class="cls-29"><g class="cls-2"><path class="cls-8" d="M161.17,340.28h-1.74c0-12.27,4.19-20.82,11.54-24.32h1.74c-7.35,3.5-11.54,12.05-11.54,24.32"/><path class="cls-15" d="M172.71,316H171a17.49,17.49,0,0,1,4.32-1.4H177a17.36,17.36,0,0,0-4.32,1.4"/><path class="cls-14" d="M177,314.56h-1.74a20.66,20.66,0,0,1,4-.37H181a20.55,20.55,0,0,0-4,.37"/></g></g></g><rect class="cls-3" x="159.43" y="284.37" width="1.74" height="39.58"/><polygon class="cls-9" points="156.32 369.39 154.59 369.39 159.43 369.39 161.17 369.39 156.32 369.39"/><rect class="cls-3" x="153.59" y="284.37" width="1.74" height="86.01"/><path class="cls-5" d="M162.15,284.37v35.1a22.52,22.52,0,0,1,19.21-10.85c13.36,0,21,8.09,21,22.18v39.59h-6.8V331.15c0-10.74-4.76-16-14.56-16-17.5,0-18.87,19.2-18.87,25.09v30.11h-6.82v-86h1v85h4.85V340.28c0-16.33,7.43-26.09,19.85-26.09,10.31,0,15.54,5.71,15.54,17v38.24h4.83V330.8c0-13.46-7.3-21.18-20-21.18-8.26,0-16.17,5-19.24,12.14l-1,2.19V284.37Z"/></g></g><g id="orb"><path class="cls-30" d="M161.21,62.36c5.15-7.74,11.22-13.84,18.57-17.53A84.25,84.25,0,0,0,150,39.41h0a6.24,6.24,0,0,0-3.86,1.38C128.15,55,109.46,83.55,88.81,65.92a84.2,84.2,0,0,0-20.09,35.32c8,17.59,19.38,46.53,37.92,38.94C135.26,127.66,142.42,90.09,161.21,62.36Z"/><path class="cls-31" d="M206.09,166.36c-1-2.05.31-3.8,2.13-4.42-7.37-10.69-7.33-19.13-11.18-31.47-3.58-9.84-11.52-10.62-20.47-7-29.51,9.84-42.93,38.47-57.24,65.3-2.13,4.26-7.65,6.83-13,7.71a83.72,83.72,0,0,0,32.56,11.48c.56.08,1.12.14,1.69.2,2.33-6.62,9.53-11,14.5-13.12,13.4-5.52,30.27-8.26,43.27-1.48,1.08-.75,2.15-1.52,3.19-2.33a61.88,61.88,0,0,0,9.69-8.5C215.83,178.7,209.79,170.8,206.09,166.36Z"/><path class="cls-32" d="M197.69,97.17c-1.35,3.07-5.41,2.51-8.09,2.11a42.49,42.49,0,0,1-9.83-2.68,182.54,182.54,0,0,1-17.1-8.5c-13.75-7.48-26.75-16.3-40.28-24.16a119.77,119.77,0,0,0-20.26-9.57c1.85-.93,3.55-2.35,5.35-3.41,2.36-1.38,4.8-2.66,7.29-3.81a84.62,84.62,0,0,1,14.91-5.26,33.38,33.38,0,0,1,6.53-1.35,34.37,34.37,0,0,1,7.85,1.2,62.72,62.72,0,0,1,10.86,3.4,76.84,76.84,0,0,1,35.76,30,68.22,68.22,0,0,1,5.48,10.65C197.43,88.91,199.18,93.83,197.69,97.17Z"/><path class="cls-33" d="M68.85,117a31.68,31.68,0,0,0-3.24,7.54c-.41-8.17,1.15-16.78,3.46-24.58,1-3.48,1.67-5.62,5.09-7.31,3-1.5,6.88-.85,10,.15,6.13,2,12.06,6.22,17.16,10.07l11.53,8.68C98.11,105.35,78.44,100.32,68.85,117Z"/><path class="cls-34" d="M175,205.26a84.7,84.7,0,0,1-28.39,3.54c-9.24-.41-15-3.23-22.55-8.44a78.69,78.69,0,0,1-16.4-15.05c-3.69-4.46-12.92-14.43-9.95-20.82,2.71-5.83,13.22-2.5,17.41-.73a96.28,96.28,0,0,1,18.34,10.68C147.46,184.41,159.46,197.4,175,205.26Z"/><path class="cls-35" d="M211.26,182.68A85,85,0,0,1,187.61,200c-6.7,3.3-8.28,3.65-14.38,0C157.3,190.64,144.54,177,129,167c-7.2-4.64-34-18.33-35.27-1.37-.56,7.8,5.91,15.54,10.55,21.21A86.47,86.47,0,0,0,124,204.53,85.25,85.25,0,0,1,76.71,166c-7.6-13.33-15.57-46.85,4.66-54.17,16.39-5.94,32.27,6.37,45,15,11.79,8,23.25,16.47,34.63,25,6.88,5.18,13.55,10.63,20.54,15.67C189.41,173.19,200.91,183.62,211.26,182.68Z"/><path class="cls-36" d="M233.61,138.74a83.91,83.91,0,0,1-13.17,32.55c-6.32,9.36-14.6,5.78-23.53.72-12.52-7.1-29.35-22.27-34.53-25.79C185.89,160.83,220.49,170.38,233.61,138.74Z"/><path class="cls-37" d="M233.94,123.36c-2.06,13.54-10,28.12-24.68,30.67-13.08,2.28-26-3.24-37.43-8.86C149.17,134,130,117.68,109.74,103,100,95.86,86.89,85.21,74.09,87A84.57,84.57,0,0,1,90.18,64.39q2.38-2.4,4.95-4.61c2.72-2.34,3.31-2,6.77-.73a103.31,103.31,0,0,1,10.62,4.67c14.34,7.21,27.66,16.42,41.45,24.6,10.55,6.27,22.2,13.34,34.49,15.3,22,3.51,12.24-21.14,5.69-31.36a82.89,82.89,0,0,0-22.34-23.18c-6.32-4.4-14.72-9.43-22.66-9.62,9-1.37,19.82,1.55,28.31,4.42a84.89,84.89,0,0,1,29.6,17.42C223.19,75.91,237.38,100.88,233.94,123.36Z"/><path class="cls-38" d="M152.82,39.42h.27C153.49,39.45,153.32,39.45,152.82,39.42Z"/><path class="cls-39" d="M152.35,39.41h0Z"/><path class="cls-40" d="M233.94,123.36c-2.06,13.54-10,28.12-24.68,30.67-13.08,2.28-26-3.24-37.44-8.86C149.17,134,130.05,117.69,109.73,103,100,95.86,86.89,85.21,74.09,87c.61-1.27,1.26-2.52,2-3.76,12.16-.58,24.42,9.36,33.69,16.09,20.32,14.74,39.44,31.08,62.09,42.23,11.42,5.61,24.36,11.13,37.44,8.85,14.64-2.55,22.62-17.13,24.68-30.67a45.44,45.44,0,0,0,.48-5.21A46.91,46.91,0,0,1,233.94,123.36Z"/><path class="cls-41" d="M112.85,111.56c-14.74-6.21-34.41-11.24-44,5.45a31.28,31.28,0,0,0-3.24,7.54S65.88,88.07,112.85,111.56Z"/><path class="cls-42" d="M165.25,148.38c-1.49-1.1-2.46-1.85-2.77-2.08C163.21,146.79,164.14,147.5,165.25,148.38Z"/><path class="cls-43" d="M233.6,138.77a84.13,84.13,0,0,1-13.16,32.52c-6.32,9.36-14.61,5.77-23.53.72-10.72-6.07-24.61-18.09-31.63-23.62,9.61,7.13,40.36,29.06,49.37,25.11C225.2,168.89,233.32,139.79,233.6,138.77Z"/><path class="cls-44" d="M162.55,76.22c-9.47-2.33-22.81-10.73-35.39-17-1.36-.67-12.15-5.73-19-8.71,2.13-1.22,4.34-2.36,6.58-3.4a84,84,0,0,1,14.9-5.26,32.76,32.76,0,0,1,6.54-1.35,33.83,33.83,0,0,1,7.85,1.2,63.6,63.6,0,0,1,10.86,3.4,78.28,78.28,0,0,1,17.94,10.38,19.86,19.86,0,0,1,3,7.43C177.51,72.92,174.44,79.16,162.55,76.22Z"/><path class="cls-45" d="M200.36,192.23A83.76,83.76,0,0,1,187.61,200c-6.7,3.3-8.28,3.65-14.38,0C157.3,190.63,144.54,177,129,167c-7.2-4.64-34-18.34-35.27-1.37-.56,7.8,5.9,15.53,10.54,21.2A86.75,86.75,0,0,0,124,204.53a85,85,0,0,1-30.7-17.89,80.09,80.09,0,0,1-8.59-22c-4.1-18.92,5.61-34.3,26.85-30.51,20.41,3.64,35.74,21.22,51,34A167.9,167.9,0,0,0,200.36,192.23Z"/><path class="cls-46" d="M118.76,202.6A85.24,85.24,0,0,1,76.71,166a70.07,70.07,0,0,1-8.14-30.74,71,71,0,0,0,8,27.32,85.06,85.06,0,0,0,31.64,31.57,77.66,77.66,0,0,0,7.93,6.62C117,201.4,117.9,202,118.76,202.6Z"/><path class="cls-47" d="M233.94,123.36c-2.06,13.54-10,28.12-24.68,30.67-13.08,2.28-26-3.24-37.44-8.86C149.17,134,130.05,117.69,109.73,103,100,95.86,86.89,85.21,74.09,87c.61-1.27,1.26-2.52,2-3.76,12.16-.58,24.42,9.36,33.69,16.09,20.32,14.74,39.44,31.08,62.09,42.23,11.42,5.61,24.36,11.13,37.44,8.85,14.64-2.55,22.62-17.13,24.68-30.67a45.44,45.44,0,0,0,.48-5.21A46.91,46.91,0,0,1,233.94,123.36Z"/><path class="cls-48" d="M112.85,111.56c-14.74-6.21-34.41-11.24-44,5.45a31.28,31.28,0,0,0-3.24,7.54S65.88,88.07,112.85,111.56Z"/><path class="cls-49" d="M233.6,138.77a84.13,84.13,0,0,1-13.16,32.52c-6.32,9.36-14.61,5.77-23.53.72-10.72-6.07-24.61-18.09-31.63-23.62,9.61,7.13,40.36,29.06,49.37,25.11C225.2,168.89,233.32,139.79,233.6,138.77Z"/><path class="cls-50" d="M197.69,97.17c-1.35,3.07-5.41,2.51-8.09,2.11a41.65,41.65,0,0,1-9.82-2.68,176.87,176.87,0,0,1-17.11-8.51c-13.75-7.47-26.74-16.28-40.28-24.15A134.72,134.72,0,0,0,110,57.55,123.59,123.59,0,0,1,124.35,64c13.16,6.93,25.84,14.78,39.2,21.33a169.31,169.31,0,0,0,16.57,7.4,40.3,40.3,0,0,0,9.44,2.17c2.57.28,6.45.66,7.62-2.29a6.65,6.65,0,0,0,.43-2.69C198.29,92.42,198.61,95.1,197.69,97.17Z"/><path class="cls-51" d="M198.08,76.15a41.8,41.8,0,0,1,3.21,12.45,58,58,0,0,0-7.14-16.35,83,83,0,0,0-22.34-23.17c-6.32-4.41-14.72-9.43-22.65-9.62,5.54-.84,11.74-.06,17.66,1.32a78.06,78.06,0,0,1,13.24,9.38A81.44,81.44,0,0,1,198.08,76.15Z"/><path class="cls-52" d="M224.26,107.65c-.36-16.31-7.77-34.31-19.12-48h0c-1.32-1.13-2.66-2.2-4-3.23h0a84.8,84.8,0,0,0-14.82-8.93l4.36,3.09c17.24,13,29.6,36.53,30.06,57.18.17,7.93-2.09,13.88-6.73,17.69-4.15,3.4-10.37,5.19-18,5.19a60.7,60.7,0,0,1-13-1.52c-22.19-4.92-35.34-20.47-49.26-36.94-1.33-1.58-2.66-3.16-4-4.74C118,73.79,103.74,67.72,90.38,64.18l-.21.21c-.65.66-1.3,1.33-1.93,2l-.69.75c13.36,3.33,27.8,9,39.37,22.57l4,4.73c14.33,17,27.85,33,51.22,38.13a65,65,0,0,0,13.93,1.65c10.79,0,17-3.48,20.14-6C221.76,123.63,224.47,116.73,224.26,107.65Z"/><path class="cls-53" d="M233.94,123.36c-2.06,13.54-10,28.12-24.68,30.67-13.08,2.28-26-3.24-37.44-8.86C149.17,134,130.05,117.69,109.73,103,100,95.86,86.89,85.21,74.09,87A84.66,84.66,0,0,1,87.55,67.15c13.36,3.33,27.8,9,39.37,22.57l4,4.73c14.33,17,27.85,33,51.22,38.13a65,65,0,0,0,13.93,1.65c10.79,0,17-3.48,20.14-6,5.54-4.55,8.25-11.45,8-20.53-.36-16.31-7.77-34.31-19.12-48,.65.55,1.29,1.1,1.92,1.67C223.19,75.91,237.37,100.88,233.94,123.36Z"/><path class="cls-54" d="M207.16,186.68A85.61,85.61,0,0,1,187.61,200c-6.7,3.3-8.28,3.65-14.38,0C157.3,190.63,144.54,177,129,167c-7-4.52-32.69-17.65-35.13-2.6a11.59,11.59,0,0,1-.06-2.63c1.92-16.2,26-4.75,33.22-.1,15.57,10,31.69,25.2,46.44,34.89,5.94,3.91,6.77,3.72,13.66.75A147.74,147.74,0,0,0,207.16,186.68Z"/><path class="cls-55" d="M173.84,205.59a84.54,84.54,0,0,1-27.26,3.21c-9.24-.41-15-3.23-22.55-8.43a79,79,0,0,1-16.4-15.06c-3.69-4.46-12.91-14.44-9.95-20.82a4.75,4.75,0,0,1,.75-1.18c-2.51,6.41,6.47,16.12,10.1,20.51a78.39,78.39,0,0,0,16.39,15.05c7.59,5.21,13.31,8,22.55,8.45S165.08,208,173.84,205.59Z"/><g class="cls-56"><path class="cls-38" d="M153.09,39.43h-.27C153.32,39.45,153.49,39.45,153.09,39.43Z"/><path class="cls-57" d="M115.44,193.55a78.69,78.69,0,0,0,8.59,6.82c7.58,5.2,13.31,8,22.55,8.43A84.7,84.7,0,0,0,175,205.26c-10.12-5.13-18.75-12.44-27.42-19.67A103.07,103.07,0,0,1,115.44,193.55Z"/><path class="cls-57" d="M181.53,167.52c-1.05-.75-2.09-1.52-3.13-2.3a103.48,103.48,0,0,1-27.18,18.71c7,5.77,14.14,11.46,22,16.1,6.1,3.61,7.68,3.26,14.38,0q3.36-1.65,6.55-3.6c.53-.32,1.05-.65,1.58-1q2.37-1.5,4.62-3.17a84.62,84.62,0,0,0,10.9-9.55C200.91,183.62,189.41,173.19,181.53,167.52Z"/><path class="cls-57" d="M186,157.13c-1,1.19-2,2.36-3.08,3.49-.33.37-.67.73-1,1.08a148.57,148.57,0,0,0,13.18,9.24c.27.17.55.33.81.48l1,.59c8.92,5.05,17.21,8.64,23.53-.72a85.41,85.41,0,0,0,9.86-19.72c.47-1.39.91-2.78,1.32-4.2.21-.71.4-1.43.59-2.15.28-1.06.53-2.11.75-3.18.11-.52.23-1.06.33-1.59s.2-1.07.29-1.61a.19.19,0,0,0,0-.07C224.47,160.75,205,162.82,186,157.13Z"/><path class="cls-57" d="M234.42,114.57C233.69,94.62,221.11,74,207.06,61.3c-.3-.26-.59-.53-.9-.78a103.82,103.82,0,0,1-14.28,89c-.7,1-1.42,2-2.18,3A43.33,43.33,0,0,0,209.26,154c14.64-2.55,22.62-17.13,24.68-30.67A46.91,46.91,0,0,0,234.42,114.57Z"/><path class="cls-57" d="M107.8,193.9h-1c-1.49,0-3,0-4.43-.1l1,.7.52.35c.21.14.43.27.64.42l1.06.66.44.28.85.51.68.41.1.06,1.52.86,1.09.59.67.36c.33.18.67.35,1,.52l.15.08.13.07.42.2.94.47.24.11c.53.25,1.07.51,1.61.75l.23.1c.46.21.93.42,1.39.61l.5.21.23.1.91.37h0c.38.16.76.32,1.15.46.66.26,1.33.5,2,.74l2.12.73a90.15,90.15,0,0,1-13.33-10.7C109.74,193.87,108.78,193.89,107.8,193.9Z"/><path class="cls-38" d="M152.48,39.41h0Z"/></g><path class="cls-58" d="M197.69,97.17c-1.35,3.07-5.41,2.51-8.09,2.11a41.65,41.65,0,0,1-9.82-2.68,176.87,176.87,0,0,1-17.11-8.51c-13.75-7.47-26.74-16.28-40.28-24.15a119.77,119.77,0,0,0-20.26-9.57c1.85-.93,3.55-2.35,5.35-3.41l.71-.41h0c6.82,3,17.6,8,19,8.71,12.58,6.23,25.92,14.63,35.39,17,11.89,2.94,15-3.3,13.27-13.27a19.86,19.86,0,0,0-3-7.43,75.64,75.64,0,0,1,17.82,19.59,67.37,67.37,0,0,1,5.48,10.65C197.43,88.91,199.18,93.83,197.69,97.17Z"/></g><g id="text-ring"><g class="cls-59"><path class="cls-60" d="M37.4,124.36a23.43,23.43,0,0,0-.14,3.36,2.69,2.69,0,0,0,1,2.2,4.18,4.18,0,0,0,2.64.66l-.17-.43a7.93,7.93,0,0,1-.53-2.28c-.11-2.84,1.17-4.32,3.84-4.42a4,4,0,0,1,3.16,1.06,5,5,0,0,1,1.2,3.4,3.87,3.87,0,0,1-1.55,3.48,8.47,8.47,0,0,1-4.76,1.34q-6.49.26-6.69-4.85a14.68,14.68,0,0,1,.22-3.09l.09-.56Zm5.2,5.82.15.35c2.61-.12,3.89-1,3.82-2.66a2.31,2.31,0,0,0-.67-1.7,2.34,2.34,0,0,0-1.72-.53,2.07,2.07,0,0,0-1.61.65,2.41,2.41,0,0,0-.48,1.67A6.82,6.82,0,0,0,42.6,130.18Z"/><path class="cls-60" d="M36.88,122.35,35,122.24l.54-9.5,1.88.1-.21,3.67,11.15.63-.12,2.13-11.15-.63Z"/><path class="cls-60" d="M49.92,104.74l-5.57-.9-.9,5.56,5.57.9-.34,2.09-12.89-2.08.34-2.09,5.5.89.9-5.56-5.5-.89.34-2.11,12.89,2.09Z"/><path class="cls-60" d="M51.42,97.69,40,90.64l1.29-4,13.42.9-.65,2-2.89-.18-1.53,4.76,2.45,1.53Zm-9.26-8.07L48,93.19l1.28-4-6.79-.5Z"/><path class="cls-60" d="M55.1,86.49,43.21,81.12l1.52-3.36,11.82,1,.12-.26-10.19-4.6L47.35,72l11.9,5.37-1.5,3.3-11.88-.92-.11.25L56,84.57Z"/><path class="cls-60" d="M60.28,75.36,49.13,68.59l1.92-3.16,11.62,2.42.14-.24-9.55-5.8L54.35,60l11.16,6.77-1.88,3.09L52,67.52l-.14.22,9.57,5.82Z"/><path class="cls-60" d="M64.77,60.76q2,1.56,3.64-.54t-.35-3.66l-7-5.46,1.31-1.68,7,5.44a4.24,4.24,0,0,1,1.9,3,5.3,5.3,0,0,1-1.39,3.49,5.26,5.26,0,0,1-3,2.17,4.27,4.27,0,0,1-3.39-1.12l-7-5.45,1.31-1.68Z"/><path class="cls-60" d="M73.27,56.72l-7.1-11.41,2.94-3,11.61,6.78-1.49,1.53-2.5-1.45-3.5,3.59,1.51,2.45ZM68.58,45.37l3.61,5.77,2.91-3-5.85-3.47Z"/><path class="cls-60" d="M87.29,43.56l-5.57,4.73-8.45-9.93L74.88,37l7.23,8.5,4-3.37Z"/><path class="cls-60" d="M91.3,40.55l-7-11,3.13-2,9.33,7.32.24-.15-6-9.44,1.78-1.13,7,11-3.06,1.93-9.42-7.29-.23.14,6,9.46Z"/><path class="cls-60" d="M101.85,34.11,96.1,22.4l7.39-3.63.82,1.66-5.49,2.69,1.62,3.32,4.47-2.19.8,1.64-4.46,2.19,1.68,3.42,5.49-2.69.82,1.68Z"/><path class="cls-60" d="M107.28,17.24l4.43,3.83.85-5.81,2.09-.77-1.3,7.56,5.87,4.65-2.21.83-4.35-3.62-1,5.6-2.09.78L111.05,23l-6-4.95Z"/><path class="cls-60" d="M116.23,16l-.49-1.82,9.2-2.46.49,1.82-3.55,1,2.88,10.78-2.06.55L119.82,15Z"/><path class="cls-60" d="M137.92,17.78l-.22-1.85,3.68-.45.81,6.57a16.9,16.9,0,0,1-2,.54c-1,.23-1.78.37-2.24.43q-3,.36-4.27-1.13a9.37,9.37,0,0,1-1.74-5,8.91,8.91,0,0,1,.53-5.2c.64-1.15,1.89-1.84,3.77-2.07A21.19,21.19,0,0,1,140,9.59l.68.05.13,1.67a30.68,30.68,0,0,0-4.14.2,2.79,2.79,0,0,0-2.37,1.32,7.59,7.59,0,0,0-.21,3.86,8.18,8.18,0,0,0,1.1,3.73,2.77,2.77,0,0,0,2.69.74,9.07,9.07,0,0,0,2-.42l-.38-3.16Z"/><path class="cls-60" d="M144.21,22.19l-.24-13L152.2,9l0,1.85-6.11.11.06,3.69,5-.09,0,1.83-5,.09.07,3.81,6.11-.12,0,1.87Z"/><path class="cls-60" d="M154,22.07l1.17-13,3.68.33,3,11.49.28,0,1-11.13,2.1.19-1.17,13-3.6-.32-3-11.52-.27,0-1,11.15Z"/><path class="cls-60" d="M171.6,12.94,172,11.1l9.26,2.21-.43,1.83-3.58-.85-2.58,10.86-2.08-.5,2.58-10.85Z"/><path class="cls-60" d="M179.36,26.35,183.57,14l7.79,2.65-.6,1.75-5.78-2-1.2,3.49,4.71,1.61-.59,1.73-4.71-1.61L182,25.27l5.79,2-.6,1.77Z"/><path class="cls-60" d="M192.51,31.61q-2.61-1.17-2.88-3c-.19-1.24.22-3,1.21-5.16s2-3.62,3.06-4.27,2.43-.58,4.16.2a15.94,15.94,0,0,1,3.2,2l-.77,1.53a19.33,19.33,0,0,0-3-1.69,2.49,2.49,0,0,0-2.54,0,8.19,8.19,0,0,0-2.13,3.24,8.45,8.45,0,0,0-1,3.73c.08.78.64,1.4,1.68,1.87a21.57,21.57,0,0,0,3.28,1.17l-.67,1.62A17.49,17.49,0,0,1,192.51,31.61Z"/><path class="cls-60" d="M204.07,37.59l2.87-4.86-4.86-2.86-2.86,4.86-1.83-1.08L204,22.42l1.82,1.07L203,28.28l4.86,2.86,2.82-4.79,1.84,1.09-6.63,11.23Z"/><path class="cls-60" d="M214.27,45.21q-2.22-1.78-2-3.66a10,10,0,0,1,2.48-4.68q2.26-2.82,4-3.37c1.17-.36,2.5,0,4,1.24a16.57,16.57,0,0,1,2.61,2.71l-1.14,1.29a19.29,19.29,0,0,0-2.48-2.39,2.49,2.49,0,0,0-2.45-.67,8.35,8.35,0,0,0-2.88,2.6,8.5,8.5,0,0,0-1.94,3.35,2.44,2.44,0,0,0,1.15,2.24,21.7,21.7,0,0,0,2.88,2l-1.06,1.4A17.36,17.36,0,0,1,214.27,45.21Z"/><path class="cls-60" d="M225.65,53.6q-2,.32-4.05-1.77t-1.8-4.06a8.65,8.65,0,0,1,2.73-4.41A8.87,8.87,0,0,1,227,40.57c1.35-.24,2.72.34,4.11,1.72s2,2.74,1.74,4.08a8.91,8.91,0,0,1-2.78,4.47A8.6,8.6,0,0,1,225.65,53.6ZM221.94,48a3.3,3.3,0,0,0,3.49,3.5,8,8,0,0,0,3.07-2.18,8.22,8.22,0,0,0,2.2-3.14,3.14,3.14,0,0,0-3.48-3.46,8.13,8.13,0,0,0-3.13,2.2A7.79,7.79,0,0,0,221.94,48Z"/><path class="cls-60" d="M226.62,56.69l10.23-8.1,2.29,2.89-6.3,10.05.18.22,8.76-6.94,1.32,1.65-10.23,8.11-2.25-2.84,6.26-10.13-.17-.21-8.78,7Z"/><path class="cls-60" d="M234.15,66.49l11-7,4.34,6.83-1.57,1-3.2-5.05L241,64.64l2.66,4.2-1.56,1-2.66-4.2-4.18,2.65Z"/><path class="cls-60" d="M239.13,74.55l11.64-5.91L254.49,76l-1.65.83-2.76-5.45L246.78,73,249,77.47l-1.63.82-2.25-4.43-3.4,1.73L244.52,81l-1.67.84Z"/><path class="cls-60" d="M248.61,83.69l-4.34,1.66-.75-2,12.18-4.67,1.78,4.62c1,2.75.29,4.62-2.3,5.61a3.76,3.76,0,0,1-4.28-.64l-4,3.84L246.05,90l3.66-3.42Zm5.78,3.23A2,2,0,0,0,255.77,84l-1-2.65L250.32,83l1,2.69a2.06,2.06,0,0,0,1.22,1.33A2.72,2.72,0,0,0,254.39,86.92Z"/><path class="cls-60" d="M247.35,93.8,260,90.41l2.14,7.94-1.79.48-1.59-5.9-3.57,1,1.3,4.8-1.77.48-1.29-4.8-3.68,1,1.59,5.9-1.81.48Z"/><path class="cls-60" d="M249.85,103.29l12.9-2,.57,3.65-10.45,5.62,0,.28,11.06-1.7.32,2.08-12.9,2-.55-3.58,10.45-5.72,0-.26-11.07,1.71Z"/><path class="cls-60" d="M251.53,119.9c-.09-1.9.38-3.22,1.41-3.94s2.74-1.15,5.15-1.25,4.14.15,5.19.79,1.62,1.91,1.71,3.8a17,17,0,0,1-.31,3.75H263a19.86,19.86,0,0,0,.15-3.44,2.49,2.49,0,0,0-1.12-2.28,8.25,8.25,0,0,0-3.85-.43,8.34,8.34,0,0,0-3.8.76,2.42,2.42,0,0,0-.92,2.34,21.72,21.72,0,0,0,.44,3.45l-1.75.14A18.27,18.27,0,0,1,251.53,119.9Z"/><path class="cls-60" d="M251.86,125.25l13,.68-.43,8.21-1.84-.09.32-6.11-3.7-.19-.25,5-1.83-.09.26-5-3.81-.2-.32,6.1-1.86-.09Z"/><path class="cls-60" d="M125.44,20.12,125,18.29l5.52-1.43.47,1.83Z"/></g><path class="cls-34" d="M53.51,163.81l1,2-9.1,6.82.19.36,11.07-3,1.14,2.2L49,179.56l.2.37,10.82-3.51,1,2-12.77,3.73-1.57-3L55,172.29l-10.31,2.84-1.58-3Z"/><path class="cls-34" d="M57.48,193.17q-2,0-3.69-2.43t-1.08-4.3a8.55,8.55,0,0,1,3.44-3.89,8.94,8.94,0,0,1,4.87-2c1.37,0,2.62.8,3.75,2.4s1.48,3,1,4.32a9,9,0,0,1-3.51,3.93A8.7,8.7,0,0,1,57.48,193.17ZM54.78,187a3.29,3.29,0,0,0,2.84,4,7.93,7.93,0,0,0,3.4-1.62,8.19,8.19,0,0,0,2.7-2.73,2.53,2.53,0,0,0-.45-2.67,2.58,2.58,0,0,0-2.39-1.33,8,8,0,0,0-3.45,1.64A7.68,7.68,0,0,0,54.78,187Z"/><path class="cls-34" d="M63.93,195.88,60.47,199l-1.41-1.58,9.73-8.7,3.3,3.69q2.94,3.3-.15,6.06a3.75,3.75,0,0,1-4.23.93l-2.39,5-1.55-1.74,2.21-4.5Zm6.55,1a2,2,0,0,0,.25-3.24l-1.9-2.11-3.53,3.16,1.92,2.14a2,2,0,0,0,1.6.81A2.7,2.7,0,0,0,70.48,196.85Z"/><path class="cls-34" d="M72.91,211.44l-5.38-4.95,8.84-9.59,1.55,1.43-7.56,8.21,3.83,3.52Z"/><path class="cls-34" d="M78.32,215.68,74.72,213l7.85-10.42,3.61,2.72q2.4,1.8,2.37,3.69a8.21,8.21,0,0,1-2,4.48,15.31,15.31,0,0,1-1.86,2.11,6.66,6.66,0,0,1-1.88,1.2Q80.85,217.58,78.32,215.68Zm6.48-3.56A7.2,7.2,0,0,0,86.38,209a2.54,2.54,0,0,0-1.31-2.3l-1.92-1.45-5.62,7.46,1.92,1.44a2.46,2.46,0,0,0,2.84.4,5.61,5.61,0,0,0,1.24-1A16.82,16.82,0,0,0,84.8,212.12Z"/><path class="cls-34" d="M93.26,225.24l1.08-2-5-2.72.78-1.42,7.1-6,2,1.13L92.16,220l3.07,1.68L97,218.41l1.87,1-1.78,3.24,1.21.65L97.42,225l-1.21-.66-1.08,2Z"/><path class="cls-34" d="M98.49,227.87l1.15-2.49,2,.94-1.15,2.49Z"/><path class="cls-34" d="M107.61,219.68a4.23,4.23,0,0,1,3.88-.16,4.18,4.18,0,0,1,2.79,2.68q.57,1.85-.68,5.13c-.83,2.19-1.78,3.6-2.87,4.22a5.08,5.08,0,0,1-6.67-2.51c-.4-1.18-.19-2.87.65-5.06S106.5,220.36,107.61,219.68Zm4.69,3.23a2.08,2.08,0,0,0-1.46-1.67,2.11,2.11,0,0,0-2.22.28,8,8,0,0,0-1.85,3.19,7.51,7.51,0,0,0-.7,3.6,2.15,2.15,0,0,0,1.48,1.63,2.13,2.13,0,0,0,2.18-.25,7.68,7.68,0,0,0,1.84-3.16A8,8,0,0,0,112.3,222.91Z"/><path class="cls-34" d="M118.87,231l.44-1.83,5.54,1.34-.45,1.83Z"/><path class="cls-34" d="M138.17,238.61l-7.26-.88,1.56-12.95,2.1.25-1.34,11.08,5.17.63Z"/><path class="cls-34" d="M140.51,238.76l.39-13,8.23.24-.06,1.85-6.11-.18-.11,3.69,5,.15,0,1.82-5-.14-.12,3.8,6.12.18-.06,1.87Z"/><path class="cls-34" d="M149.66,227.85l-.12-1.88,9.51-.63.12,1.88-3.67.25.74,11.13-2.13.14-.74-11.13Z"/><path class="cls-34" d="M160.67,229.49l-.64-4.37,2-.27.45,4.4Z"/><path class="cls-34" d="M168.27,225.42c-1.58.32-2.26,1-2,2.14a1.37,1.37,0,0,0,.81,1.11,11,11,0,0,0,2.66.4,6.63,6.63,0,0,1,3,.72,3.08,3.08,0,0,1,1.25,2.16,3.84,3.84,0,0,1-.53,3.25,4.72,4.72,0,0,1-2.93,1.63,19.1,19.1,0,0,1-3.58.34h-.7l-.13-1.71A30.81,30.81,0,0,0,170,235c1.54-.31,2.18-1.16,1.9-2.52a1.37,1.37,0,0,0-.77-1.08,8,8,0,0,0-2.52-.37,6.5,6.5,0,0,1-3-.7,3.28,3.28,0,0,1-1.41-2.36,3.19,3.19,0,0,1,.59-2.85,5.07,5.07,0,0,1,3-1.52,21.3,21.3,0,0,1,3.47-.35l.67,0L172,225C170.24,225.12,169,225.28,168.27,225.42Z"/><path class="cls-34" d="M185.16,227.3l-.63-1.76L188,224.3l2.21,6.24a16.94,16.94,0,0,1-1.87,1,21.31,21.31,0,0,1-2.1.9c-1.86.66-3.33.61-4.4-.17a9.2,9.2,0,0,1-2.78-4.46,8.81,8.81,0,0,1-.61-5.19c.36-1.26,1.44-2.21,3.22-2.84a22.17,22.17,0,0,1,3.69-.9l.67-.1.49,1.61a31,31,0,0,0-4,1.09,2.79,2.79,0,0,0-2,1.81,7.45,7.45,0,0,0,.64,3.81,8,8,0,0,0,1.88,3.4,2.77,2.77,0,0,0,2.79.14,9.55,9.55,0,0,0,1.9-.86l-1.07-3Z"/><path class="cls-34" d="M193.38,229.46l-5.58-11.8,7.44-3.51.79,1.67-5.53,2.61,1.58,3.34,4.5-2.12.78,1.65-4.5,2.12,1.63,3.44,5.53-2.61.8,1.69Z"/><path class="cls-34" d="M196.57,215.59l-1-1.62,8.19-4.86,1,1.62-3.16,1.88,5.7,9.59-1.83,1.09-5.7-9.6Z"/><path class="cls-34" d="M214.85,211.44l2.91,3.63-1.65,1.32-8.17-10.17,3.87-3.1q3.45-2.76,6.05.47a3.76,3.76,0,0,1,.69,4.28l4.89,2.65L221.62,212l-4.38-2.44Zm1.32-6.47a2,2,0,0,0-3.22-.42l-2.21,1.77,3,3.7,2.25-1.8a2.08,2.08,0,0,0,.9-1.56A2.66,2.66,0,0,0,216.17,205Z"/><path class="cls-34" d="M225.68,208.44l-9.18-9.28,5.86-5.78,1.3,1.31-4.35,4.3,2.59,2.62,3.54-3.49,1.29,1.3-3.54,3.49,2.68,2.71,4.35-4.29,1.31,1.32Z"/><path class="cls-34" d="M232.81,201.32l-8-10.78,2.68-3.25,12.13,5.81-1.36,1.64-2.61-1.24-3.18,3.87,1.71,2.32ZM227.2,190.4l4.07,5.46,2.66-3.22-6.12-3Z"/><path class="cls-34" d="M243.6,187.19,241.12,191l-10.92-7.15,2.48-3.77q1.65-2.52,3.53-2.6a8.21,8.21,0,0,1,4.61,1.69,16.61,16.61,0,0,1,2.23,1.72,6.57,6.57,0,0,1,1.32,1.79C245,183.92,244.75,185.44,243.6,187.19Zm-4-6.23a7.31,7.31,0,0,0-3.18-1.37c-.8-.06-1.54.43-2.21,1.46l-1.32,2,7.81,5.11,1.31-2a2.48,2.48,0,0,0,.22-2.87,5.66,5.66,0,0,0-1-1.16A14,14,0,0,0,239.62,181Z"/><path class="cls-34" d="M249.94,176.28l-1,1.89-4.77-2.48-8.7.08,1.1-2.11,6.24.14-3.68-5.05,1.1-2.1,4.93,7.15Z"/><path class="cls-34" d="M248.41,168.83l-7.84-3.19.88-2,7.69,3.54Zm4.13,2-2.45-1.06.89-2,2.45,1.06Z"/><circle class="cls-34" cx="42.28" cy="149.28" r="3.87"/><circle class="cls-34" cx="252.95" cy="149.28" r="3.87"/></g></g></svg>