<svg version="1.1" id="Layer_1" xmlns="http://www.w3.org/2000/svg" xmlns:xlink="http://www.w3.org/1999/xlink" x="0px" y="0px"
	 viewBox="0 0 250 100" style="enable-background:new 0 0 250 100;" xml:space="preserve">
<style type="text/css">
	.st0{fill:none;stroke:#FFFFFF;stroke-width:3;stroke-miterlimit:10;}
</style>
<g>
	<path class="st0" d="M62.46,89.54L10,67.5v-4.94l0.35-0.12l52.11-21.87v6.08l-0.35,0.15L17.89,65.03L62.5,83.44L62.46,89.54z"/>
	<path class="st0" d="M187.54,88.97v-6.09l44.61-18.42l-44.61-18.38v-6.08l52.46,22v4.93L187.54,88.97z"/>
	<path class="st0" d="M114.64,86.42c-4.26,4.74-11.37,7.11-19.19,7.11c-8.05,0-15.04-2.49-19.54-7.58
		c-3.07-3.23-4.81-7.51-4.86-11.97h6.05c0.29,3.48,1.86,6.73,4.4,9.13c3.43,3.31,8.29,4.74,13.97,4.74c6.15,0,10.9-1.42,13.97-4.38
		c2.02-2.14,3.2-4.15,3.2-7.58c0-5.33-3.91-9.83-10.9-10.77l-11.48-1.54c-4.86-0.59-10.08-2.13-13.38-5.91
		c-2.23-2.6-3.41-5.94-3.32-9.36c0.02-4.37,1.91-8.52,5.2-11.39c4.15-3.91,9.94-5.68,16.1-5.68c7.11,0,13.84,2.25,17.89,6.99
		c2.63,3.06,4.2,6.88,4.5,10.9h-5.92c-0.37-2.58-1.39-5.02-2.96-7.11c-2.73-3.2-7.34-5.21-13.51-5.21c-4.61,0-7.94,0.83-10.54,2.72
		c-2.96,2.14-4.73,4.98-4.73,8.18c0,4.98,2.48,8.76,11.48,9.95l11.25,1.54c11.14,1.54,16.35,9.11,16.35,16.34
		C118.75,79.53,117.31,83.43,114.64,86.42z"/>
	<path class="st0" d="M135.96,6.47v37.19c3.31-7.58,11.72-12.44,20-12.44c13.62,0,20.84,8.41,20.84,21.68v39.09l-5.91,0V53.26
		c0-10.31-4.5-16.47-15.27-16.47c-14.57,0-19.66,12.79-19.66,25.59v29.61h-5.93V6.47"/>
</g>
</svg>
