<svg xmlns="http://www.w3.org/2000/svg" xmlns:xlink="http://www.w3.org/1999/xlink" viewBox="0 0 500 500"><defs>
<style>
.orbcls-1{isolation:isolate;}
.orbcls-2{fill:#fff;}
.orbcls-3{fill:#b7d547;}
.orbcls-4{fill:url(#radial-gradient);}
.orbcls-5{fill:url(#radial-gradient-2);}
.orbcls-6{fill:url(#radial-gradient-3);}
.orbcls-7{fill:url(#radial-gradient-4);}
.orbcls-8{fill:url(#radial-gradient-5);}
.orbcls-9{fill:url(#radial-gradient-6);}
.orbcls-10{fill:url(#radial-gradient-7);}
.orbcls-11,.orbcls-14{fill:#008dc0;}
.orbcls-12{fill:url(#radial-gradient-8);}
.orbcls-13,.orbcls-22{fill:#aeaaab;}
.orbcls-13{opacity:0.76;}
.orbcls-13,.orbcls-14,.orbcls-16,.orbcls-17,.orbcls-18,.orbcls-19,.orbcls-22,.orbcls-24,.orbcls-29{mix-blend-mode:multiply;}
.orbcls-14,.orbcls-23{opacity:0.3;}
.orbcls-15{fill:url(#radial-gradient-9);}
.orbcls-16{fill:url(#radial-gradient-10);}
.orbcls-17,.orbcls-28{fill:url(#radial-gradient-11);}
.orbcls-18,.orbcls-26{fill:url(#radial-gradient-12);}
.orbcls-19{fill:url(#radial-gradient-13);}
.orbcls-20{fill:url(#radial-gradient-14);}
.orbcls-21{fill:url(#radial-gradient-15);}
.orbcls-22{opacity:0.6;}
.orbcls-23{fill:url(#radial-gradient-16);}
.orbcls-24{opacity:0.2;}
.orbcls-25{fill:#94938d;}
.orbcls-27{fill:url(#radial-gradient-18);}
.orbcls-29{fill:url(#radial-gradient-20);}
.bg{fill:#12133c;stroke:#231f20;stroke-miterlimit:10;}

  .loader {
    position: absolute;
    /*
    border-left: 2px solid #ffffff;
    border-top: 2px solid rgba(255, 255, 255, 0.2);
    border-right: 2px solid rgba(255, 255, 255, 0.2);
    border-bottom: 2px solid rgba(255, 255, 255, 0.2);
    */
    //background:url(images/loader.png) center center no-repeat;
    height: 300px;
    width: 400px;
    left: 50%;
    top: 50%;
    margin: -200px 0 0 -150px;

    font-size: 10px;
    z-index: 9999;
   
    svg{
        width:100%;
    }
  }
  #text-ring{
    -webkit-animation: load 20s infinite linear;
    -moz-animation: load 20s infinite linear;
    ms-animation: load 20s infinite linear;
    o-animation: load 20s infinite linear;
    animation: load 20s infinite linear;
    transform-origin: 250px 250px;
  }
  #orb-wrap{
    -webkit-animation: breathe 10s infinite linear;
    -moz-animation: breathe 10s infinite linear;
    ms-animation: breathe 10s infinite linear;
    o-animation: breathe 10s infinite linear;
    animation: breathe 10s infinite linear;
    transform-origin: 250px 250px;
  }
  .loader,
  .loader:after {
    //border-radius: 50%;
    width: 300px;
    height: 400px;
  }
  @-webkit-keyframes load {
    0% {
      -webkit-transform: rotate(0deg);
      transform: rotate(0deg);
    }
    100% {
      -webkit-transform: rotate(360deg);
      transform: rotate(360deg);
    }
  }
  
  @keyframes load {
    0% {
      -webkit-transform: rotate(0deg);
      transform: rotate(0deg);
    }
    100% {
      -webkit-transform: rotate(360deg);
      transform: rotate(360deg);
    }
  }
  @-webkit-keyframes breathe {
    0% {
      -webkit-transform: scale(1);
      transform: scale(1);
    }
     50% {
     -webkit-transform: scale(1.1);
      transform: scale(1.1);
    }

    100% {
      -webkit-transform: scale(1);
      transform: scale(1);
    }
  }
  
  @keyframes breathe {
    0% {
     -webkit-transform: scale(1);
      transform: scale(1);
    }
     50% {
     -webkit-transform: scale(1.1);
      transform: scale(1.1);
    }
    100% {
     -webkit-transform: scale(1);
      transform: scale(1);
    }
  }
</style><radialGradient id="radial-gradient" cx="70.15" cy="77.4" r="205.81" gradientTransform="translate(212.19 272.81) scale(0.7)" gradientUnits="userSpaceOnUse">
<stop offset="0.34" stop-color="#0e5028"></stop>
<stop offset="0.54" stop-color="#0c3f21"></stop>
<stop offset="0.76" stop-color="#0b341d"></stop>
<stop offset="1" stop-color="#0b301b"/>
</radialGradient>
<radialGradient id="radial-gradient-2" cx="-22.57" cy="-132.92" r="206.41" gradientTransform="translate(212.19 272.81) scale(0.7)" gradientUnits="userSpaceOnUse">
<stop offset="0.34" stop-color="#25326c"></stop>
<stop offset="0.35" stop-color="#25326b"></stop>
<stop offset="0.5" stop-color="#1b2351"></stop>
<stop offset="0.66" stop-color="#14193e"></stop>
<stop offset="0.83" stop-color="#101333"></stop>
<stop offset="1" stop-color="#0f112f"/>
</radialGradient>
<radialGradient id="radial-gradient-3" cx="101.48" cy="-101.19" r="195.68" gradientTransform="translate(212.19 272.81) scale(0.7)" gradientUnits="userSpaceOnUse">
<stop offset="0.07" stop-color="#bbdcf2"></stop>
<stop offset="0.15" stop-color="#b0d7ee"></stop>
<stop offset="0.4" stop-color="#60b5d9"></stop>
<stop offset="0.72" stop-color="#008dc0"></stop>
<stop offset="1" stop-color="#005e92"/>
</radialGradient>
<radialGradient id="radial-gradient-4" cx="-80.15" cy="-82.87" r="190.08" gradientTransform="translate(212.19 272.81) scale(0.7)" gradientUnits="userSpaceOnUse">
<stop offset="0" stop-color="#fff"><animate attributeName="stop-color" values="#ffffff; #f5e9e4;" dur="4s" repeatCount="indefinite"></stop>
<stop offset="0.15" stop-color="#f5e9e4"><animate attributeName="stop-color" values="#ffffff; #f5e9e4;" dur="4s" repeatCount="indefinite"></stop>
<stop offset="0.69" stop-color="#aeaaab"/>
</radialGradient>
<radialGradient id="radial-gradient-5" cx="45.29" cy="14.46" r="276.92" gradientTransform="translate(212.19 272.81) scale(0.7)" gradientUnits="userSpaceOnUse">
<stop offset="0.01" stop-color="#40a848"><animate attributeName="stop-color" values="#40a848; #89c347; #40a848" dur="4s" repeatCount="indefinite"></animate></stop>
<stop offset="0.09" stop-color="#65b648"><animate attributeName="stop-color" values="#40a848; #89c347; #40a848" dur="4s" repeatCount="indefinite"></animate></stop>
<stop offset="0.18" stop-color="#89c347"><animate attributeName="stop-color" values="#40a848; #89c347; #40a848" dur="4s" repeatCount="indefinite"></animate></stop>
<stop offset="0.27" stop-color="#a3cd47"><animate attributeName="stop-color" values="#40a848; #89c347; #40a848" dur="4s" repeatCount="indefinite"></animate></stop>
<stop offset="0.35" stop-color="#b3d347"><animate attributeName="stop-color" values="#40a848; #89c347; #40a848" dur="4s" repeatCount="indefinite"></animate></stop>
<stop offset="0.41" stop-color="#b9d547"><animate attributeName="stop-color" values="#40a848; #89c347; #40a848" dur="4s" repeatCount="indefinite"></animate></stop>
<stop offset="0.46" stop-color="#b3d347"><animate attributeName="stop-color" values="#40a848; #89c347; #40a848" dur="4s" repeatCount="indefinite"></animate></stop>
<stop offset="0.53" stop-color="#a0cc47"><animate attributeName="stop-color" values="#40a848; #89c347; #40a848" dur="4s" repeatCount="indefinite"></animate></stop>
<stop offset="0.62" stop-color="#83c147"><animate attributeName="stop-color" values="#40a848; #89c347; #40a848" dur="4s" repeatCount="indefinite"></animate></stop>
<stop offset="0.72" stop-color="#59b148"><animate attributeName="stop-color" values="#40a848; #89c347; #40a848" dur="4s" repeatCount="indefinite"></animate></stop>
<stop offset="0.77" stop-color="#40a848"><animate attributeName="stop-color" values="#40a848; #89c347; #40a848" dur="4s" repeatCount="indefinite"></animate></stop>
<stop offset="1" stop-color="#10432c"/>
</radialGradient>
<radialGradient id="radial-gradient-6" cx="123.62" cy="54.58" r="187.74" xlink:href="#radial-gradient-4"/><radialGradient id="radial-gradient-7" cx="60.43" cy="-73.07" r="246.97" gradientTransform="translate(212.19 272.81) scale(0.7)" gradientUnits="userSpaceOnUse">
<stop offset="0.23" stop-color="#b0d7ee"> <animate attributeName="stop-color" values=" #008dc0; #60b5d9; #008dc0" dur="4s" repeatCount="indefinite"></animate></stop>
<stop offset="0.45" stop-color="#60b5d9"><animate attributeName="stop-color" values=" #008dc0; #60b5d9; #008dc0" dur="4s" repeatCount="indefinite"></animate></stop>
<stop offset="0.72" stop-color="#008dc0"><animate attributeName="stop-color" values=" #008dc0; #60b5d9; #008dc0" dur="4s" repeatCount="indefinite"></animate></stop>
<stop offset="1" stop-color="#005e92"><animate attributeName="stop-color" values=" #008dc0; #60b5d9; #008dc0" dur="4s" repeatCount="indefinite"></animate></stop>
</radialGradient>
<radialGradient id="radial-gradient-8" cx="-91.79" cy="156.14" r="281.33" gradientTransform="translate(212.19 272.81) scale(0.7)" gradientUnits="userSpaceOnUse">
<stop offset="0.1" stop-color="#b9d547"><animate attributeName="stop-color" values="#94c747; #70ba48; #56b048" dur="4s" repeatCount="indefinite"></animate></stop>
<stop offset="0.18" stop-color="#94c747"></stop>
<stop offset="0.27" stop-color="#70ba48"></stop>
<stop offset="0.36" stop-color="#56b048"></stop>
<stop offset="0.44" stop-color="#46aa48"></stop>
<stop offset="0.5" stop-color="#40a848"></stop>
<stop offset="0.58" stop-color="#46aa48"></stop>
<stop offset="0.68" stop-color="#59b148"></stop>
<stop offset="0.8" stop-color="#76bc48"></stop>
<stop offset="0.93" stop-color="#a0cc47"></stop>
<stop offset="1" stop-color="#b9d547"/>
</radialGradient>
<radialGradient id="radial-gradient-9" cx="89.52" cy="-132.51" r="263.43" gradientTransform="translate(212.19 272.81) scale(0.7)" gradientUnits="userSpaceOnUse">
<stop offset="0.57" stop-color="#005e92" stop-opacity="0"></stop>
<stop offset="0.66" stop-color="#05588c" stop-opacity="0.14"></stop>
<stop offset="0.83" stop-color="#14477e" stop-opacity="0.51"></stop>
<stop offset="1" stop-color="#25326c" stop-opacity="0.95"/>
</radialGradient>
<radialGradient id="radial-gradient-10" cx="69.28" cy="-41.69" r="369.78" gradientTransform="translate(212.19 272.81) scale(0.7)" gradientUnits="userSpaceOnUse">
<stop offset="0.15" stop-color="#b0d7ee"></stop>
<stop offset="0.36" stop-color="#60b5d9"></stop>
<stop offset="0.61" stop-color="#008dc0"></stop>
<stop offset="1" stop-color="#005e92"/>
</radialGradient>
<radialGradient id="radial-gradient-11" cx="-80.11" cy="-64.23" r="135.7" xlink:href="#radial-gradient-4"/><radialGradient id="radial-gradient-12" cx="130.89" cy="54.62" r="181.1" xlink:href="#radial-gradient-4"/><radialGradient id="radial-gradient-13" cx="73.59" cy="-88.6" r="239.12" xlink:href="#radial-gradient-3"/><radialGradient id="radial-gradient-14" cx="103.82" cy="-83.83" r="386.44" gradientTransform="translate(212.19 272.81) scale(0.7)" gradientUnits="userSpaceOnUse">
<stop offset="0" stop-color="#fff"></stop>
<stop offset="0.46" stop-color="#bbdcf2" stop-opacity="0"></stop>
<stop offset="1" stop-color="#fff" stop-opacity="0"/>
</radialGradient>
<radialGradient id="radial-gradient-15" cx="63.08" cy="-65.66" r="313.81" gradientTransform="translate(212.19 272.81) scale(0.7)" gradientUnits="userSpaceOnUse">
<stop offset="0.28" stop-color="#bbdcf2" stop-opacity="0"></stop>
<stop offset="0.33" stop-color="#a4d2ec" stop-opacity="0.08"></stop>
<stop offset="0.43" stop-color="#69b9dc" stop-opacity="0.29"></stop>
<stop offset="0.57" stop-color="#0a91c3" stop-opacity="0.62"></stop>
<stop offset="0.59" stop-color="#008dc0" stop-opacity="0.65"></stop>
<stop offset="0.6" stop-color="#0386b9" stop-opacity="0.67"></stop>
<stop offset="0.7" stop-color="#16588f" stop-opacity="0.83"></stop>
<stop offset="0.8" stop-color="#213c75" stop-opacity="0.92"></stop>
<stop offset="0.88" stop-color="#25326c" stop-opacity="0.95"/>
</radialGradient>
<radialGradient id="radial-gradient-16" cx="-45.04" cy="161.96" r="136.37" gradientTransform="translate(212.19 272.81) scale(0.7)" gradientUnits="userSpaceOnUse">
<stop offset="0.41" stop-color="#10432c"></stop>
<stop offset="0.7" stop-color="#0e3d26"></stop>
<stop offset="1" stop-color="#0b301b"/>
</radialGradient>
<radialGradient id="radial-gradient-18" cx="69.28" cy="-41.69" r="221.36" xlink:href="#radial-gradient-3"></radialGradient>
<radialGradient id="radial-gradient-20" cx="121.75" cy="-235.15" r="170.09" xlink:href="#radial-gradient-3"></radialGradient>
</defs>
<title>Orb</title>

<g class="orbcls-1">
<g id="BG"><circle class="bg" cx="250" cy="250" r="250"/></g>
<g id="text-ring">
<g id="banner">
<path class="orbcls-2" d="M15,251a48.29,48.29,0,0,0-.28,7,5.62,5.62,0,0,0,2.13,4.61A8.71,8.71,0,0,0,22.34,264l-.35-.9a16.56,16.56,0,0,1-1.1-4.77q-.34-8.91,8-9.23c2.86-.11,5.07.63,6.61,2.21s2.38,4,2.5,7.11a8,8,0,0,1-3.23,7.26q-3.44,2.55-9.94,2.79-13.54.54-14-10.12a31.51,31.51,0,0,1,.47-6.46l.19-1.16Zm10.85,12.15.31.75q8.19-.4,8-5.56a4.82,4.82,0,0,0-1.41-3.55,4.81,4.81,0,0,0-3.58-1.11A4.4,4.4,0,0,0,25.8,255a4.89,4.89,0,0,0-1,3.48A14.13,14.13,0,0,0,25.85,263.15Z"/>
<path class="orbcls-2" d="M13.93,246.76,10,246.54l1.12-19.85,3.93.22-.43,7.67,23.26,1.31-.25,4.45L14.37,239Z"/>
<path class="orbcls-2" d="M41.12,210.08,29.5,208.21l-1.88,11.61,11.62,1.88-.71,4.36-26.88-4.35.71-4.35,11.46,1.85,1.87-11.62-11.45-1.85.7-4.4,26.89,4.35Z"/>
<path class="orbcls-2" d="M44.25,195.33,20.38,180.6l2.68-8.36,28,1.9-1.36,4.23-6-.38-3.2,9.95,5.12,3.19ZM24.94,178.48,37,185.92l2.67-8.29-14.16-1Z"/>
<path class="orbcls-2" d="M51.94,171.94,27.12,160.73l3.18-7L55,155.77l.24-.54L34,145.62l1.82-4,24.81,11.22-3.11,6.88-24.79-1.92-.23.51,21.3,9.63Z"/>
<path class="orbcls-2" d="M62.75,148.7,39.48,134.56l4-6.59L67.72,133l.31-.51L48.09,120.39l2.29-3.77,23.27,14.14-3.92,6.46-24.37-4.9-.29.47,20,12.14Z"/>
<path class="orbcls-2" d="M72.12,118.21q4.17,3.27,7.6-1.12T79,109.45L64.39,98l2.75-3.5,14.52,11.36q3.8,3,4,6.31c.12,2.24-.84,4.66-2.89,7.28s-4.17,4.13-6.36,4.54-4.54-.37-7.07-2.35L54.79,110.3l2.74-3.5Z"/>
<path class="orbcls-2" d="M89.85,109.77,75,86l6.13-6.29,24.23,14.17L102.28,97l-5.22-3-7.29,7.49,3.16,5.13ZM80.07,86.09l7.52,12,6.07-6.23L81.45,84.66Z"/>
<path class="orbcls-2" d="M119.11,82.3l-11.64,9.88L89.84,71.43l3.36-2.86,15.09,17.76,8.27-7Z"/>
<path class="orbcls-2" d="M127.46,76,112.89,53l6.52-4.12,19.47,15.29.5-.32L126.9,44.14l3.73-2.36,14.56,23-6.38,4L119.15,53.61l-.47.3,12.51,19.75Z"/>
<path class="orbcls-2" d="M149.47,62.55l-12-24.45,15.42-7.56L154.6,34l-11.46,5.61,3.4,6.93L155.85,42l1.68,3.43L148.22,50l3.5,7.13,11.45-5.61L164.89,55Z"/>
<path class="orbcls-2" d="M160.76,27.35l9.23,8,1.79-12.13,4.36-1.63-2.72,15.79,12.25,9.72-4.61,1.73L172,41.27,170,53l-4.36,1.63,3-15.17L156.1,29.09Z"/>
<path class="orbcls-2" d="M179.47,24.7l-1-3.8,19.21-5.13,1,3.8-7.42,2,6,22.51L193,45.21,187,22.7Z"/>
<path class="orbcls-2" d="M202.66,33.73l-.73-3.87,11.67-2.22.74,3.86Z"/>
<path class="orbcls-2" d="M230.25,27.92,229.87,24l7.72-.75,1.33,13.77a33.71,33.71,0,0,1-4.28,1c-2.15.43-3.72.68-4.7.78q-6.16.6-8.83-2.58t-3.37-10.44Q217,18.57,219.11,15t8-4.12a43.6,43.6,0,0,1,7.91,0l1.41.15.18,3.49a68,68,0,0,0-8.65.2c-2.53.24-4.19,1.12-5,2.64s-1,4.2-.63,8.05,1.07,6.47,2.09,7.84S227.28,35.23,230,35a19,19,0,0,0,4.28-.77l-.64-6.61Z"/>
<path class="orbcls-2" d="M243.12,37.45l.18-27.23,17.17.11,0,3.86-12.76-.09-.05,7.72,10.37.06,0,3.82-10.38-.07-.05,8,12.76.09,0,3.89Z"/>
<path class="orbcls-2" d="M263.84,37.85l2.77-27.09,7.67.79,5.85,24.06.59.06,2.38-23.22,4.39.45L284.72,40l-7.52-.78-6-24.11-.55-.06L268.23,38.3Z"/>
<path class="orbcls-2" d="M300.74,19.54l1-3.8L321,20.81l-1,3.81-7.42-2-6,22.53-4.3-1.14,5.94-22.53Z"/>
<path class="orbcls-2" d="M316.23,48l9.42-25.55,16.12,5.94L340.43,32l-12-4.42-2.67,7.24,9.74,3.59L334.2,42l-9.73-3.59-2.75,7.46,12,4.42-1.35,3.65Z"/>
<path class="orbcls-2" d="M343.39,59.62c-3.58-1.72-5.53-3.89-5.85-6.48s.61-6.17,2.8-10.7,4.4-7.46,6.61-8.76,5.1-1.09,8.66.63a34.58,34.58,0,0,1,6.58,4.28l-1.69,3.16a41.24,41.24,0,0,0-6.17-3.69c-2.15-1-3.91-1.1-5.29-.19s-2.92,3.12-4.62,6.64-2.49,6.1-2.37,7.74,1.26,3,3.41,4a44.46,44.46,0,0,0,6.78,2.61l-1.49,3.34A37.18,37.18,0,0,1,343.39,59.62Z"/>
<path class="orbcls-2" d="M367.16,72.67l6.23-10-10-6.23-6.23,10-3.74-2.34L367.84,41l3.74,2.34-6.14,9.85,10,6.22,6.15-9.85,3.78,2.36L370.94,75Z"/>
<path class="orbcls-2" d="M388.06,89.14q-4.55-3.86-4-7.75t5.4-9.65q4.89-5.76,8.6-6.81t8.22,2.79a34.45,34.45,0,0,1,5.3,5.8l-2.44,2.62a41.35,41.35,0,0,0-5-5.12c-1.82-1.54-3.51-2-5.08-1.51s-3.61,2.28-6.14,5.26-3.94,5.28-4.23,6.89.47,3.19,2.29,4.74a46.26,46.26,0,0,0,5.9,4.23l-2.28,2.86A37.24,37.24,0,0,1,388.06,89.14Z"/>
<path class="orbcls-2" d="M411.35,107.23q-4.1.54-8.36-3.91t-3.53-8.56q.72-4.11,5.92-9.08t9.44-5.6q4.24-.61,8.48,3.81t3.42,8.6q-.81,4.2-6,9.19T411.35,107.23ZM403.9,95.29q-.76,2.59,1.88,5.36t5.22,2.13c1.73-.42,3.9-1.89,6.51-4.39s4.2-4.65,4.76-6.44,0-3.6-1.75-5.4-3.5-2.47-5.33-2-4,1.94-6.64,4.42S404.41,93.56,403.9,95.29Z"/>
<path class="orbcls-2" d="M413.19,113.69l21.74-16.4,4.65,6.16L425.93,124.1l.35.48,18.63-14.06,2.66,3.53-21.74,16.4-4.55-6,13.56-20.84-.33-.45-18.66,14.08Z"/>
<path class="orbcls-2" d="M428.41,134.57l23.36-14,8.68,14.49-3.3,2-6.42-10.71-7.88,4.72,5.34,8.9-3.31,2-5.34-8.9-8.86,5.32Z"/>
<path class="orbcls-2" d="M438.37,151.62,463,139.9l7.39,15.5-3.47,1.66-5.5-11.52-7,3.32,4.47,9.36-3.45,1.64L451,150.5l-7.18,3.42,5.49,11.52-3.52,1.68Z"/>
<path class="orbcls-2" d="M457.7,171.21l-9.14,3.25-1.48-4.16,25.66-9.12,3.46,9.74q3.09,8.69-5.07,11.59-5.47,2-8.91-1.55l-8.57,7.81L452,184.2l7.82-7Zm11.87,7q4.6-1.63,3-6.05l-2-5.59-9.33,3.32,2,5.66a4.21,4.21,0,0,0,2.46,2.83A5.53,5.53,0,0,0,469.57,178.25Z"/>
<path class="orbcls-2" d="M454.55,192.26,481,185.83l4.05,16.7-3.75.9-3-12.4-7.5,1.82,2.45,10.09-3.71.9-2.45-10.09-7.73,1.88,3,12.4-3.78.92Z"/>
<path class="orbcls-2" d="M459.26,212.18l27-3.49,1,7.65-22.08,11.19.07.59,23.15-3,.56,4.38L462,233l-1-7.49,22.1-11.39-.07-.55-23.19,3Z"/>
<path class="orbcls-2" d="M461.89,246.93c-.07-4,1-6.69,3.14-8.15s5.78-2.24,10.81-2.35,8.63.55,10.8,1.94,3.28,4,3.36,8a35.23,35.23,0,0,1-.84,7.81l-3.58-.08a41.3,41.3,0,0,0,.49-7.17c-.05-2.38-.79-4-2.22-4.81s-4.11-1.19-8-1.11-6.56.54-8,1.39-2.08,2.47-2,4.85a44.63,44.63,0,0,0,.73,7.22l-3.65.2A37.83,37.83,0,0,1,461.89,246.93Z"/>
<path class="orbcls-2" d="M462.32,258.1l27.15,2.07-1.3,17.13-3.84-.3,1-12.72-7.69-.59L476.82,274l-3.81-.29.79-10.35-7.93-.6-1,12.72-3.88-.29Z"/>
</g>
<g id="world4">
<path class="orbcls-3" d="M53.6,332.79l2.14,4.13-19,14.25.38.74,23.09-6.17,2.39,4.59L44.29,365.67l.4.77,22.58-7.33,2.14,4.13L42.77,371l-3.28-6.32L56.7,350.49l-21.52,5.93-3.3-6.35Z"/>
<path class="orbcls-3" d="M61.88,394.09q-4.12-.06-7.7-5.08t-2.25-9q1.3-4,7.18-8.12t10.16-4.16q4.29,0,7.83,5t2.14,9c-.95,2.68-3.38,5.42-7.32,8.21S64.64,394.13,61.88,394.09ZM56.25,381.2q-1.14,2.46,1.08,5.57t4.86,2.87c1.76-.16,4.12-1.3,7.07-3.39s4.83-4,5.64-5.68S75.4,377,74,375s-3.1-3-5-2.75-4.28,1.33-7.21,3.41S57,379.56,56.25,381.2Z"/>
<path class="orbcls-3" d="M75.35,399.74l-7.23,6.47-2.94-3.29,20.3-18.16,6.89,7.7q6.15,6.89-.31,12.66-4.32,3.87-8.83,1.93l-5,10.48L75,413.91l4.6-9.4Zm13.66,2q3.64-3.27.51-6.76l-4-4.41-7.37,6.6,4,4.47a4.22,4.22,0,0,0,3.36,1.69A5.66,5.66,0,0,0,89,401.77Z"/>
<path class="orbcls-3" d="M94.09,432.24,82.86,421.91l18.44-20,3.24,3L88.77,422l8,7.35Z"/>
<path class="orbcls-3" d="M105.37,441.09l-7.52-5.67,16.39-21.75,7.52,5.67q5,3.78,4.95,7.7t-4.17,9.36a31.68,31.68,0,0,1-3.89,4.41,13.5,13.5,0,0,1-3.9,2.51Q110.61,445,105.37,441.09Zm13.52-7.44q3-3.93,3.3-6.42c.22-1.66-.69-3.26-2.75-4.81l-4-3L103.72,435l4,3q3.14,2.37,5.94.84a12.12,12.12,0,0,0,2.57-2A32.43,32.43,0,0,0,118.89,433.65Z"/>
<path class="orbcls-3" d="M136.54,461.05l2.26-4.12-10.35-5.67,1.62-3,14.8-12.6,4.29,2.35-14.92,12,6.41,3.52,3.71-6.76,3.91,2.14-3.71,6.77,2.51,1.37-1.86,3.38-2.51-1.38-2.25,4.12Z"/>
<path class="orbcls-3" d="M147.45,466.55l2.39-5.2,4.23,1.95-2.4,5.19Z"/>
<path class="orbcls-3" d="M166.47,449.45q3.47-2.11,8.1-.35t5.83,5.6q1.18,3.85-1.42,10.71t-6,8.82q-3.41,2-8,.22T159.07,469q-1.24-3.71,1.35-10.57T166.47,449.45Zm9.8,6.73a4.36,4.36,0,0,0-3.06-3.48,4.41,4.41,0,0,0-4.62.57q-1.93,1.59-3.86,6.68t-1.46,7.5a4.44,4.44,0,0,0,3.09,3.4,4.36,4.36,0,0,0,4.53-.51q1.91-1.51,3.84-6.61C176,460.34,176.53,457.82,176.27,456.18Z"/>
<path class="orbcls-3" d="M189.92,473l.93-3.83,11.55,2.81-.93,3.82Z"/>
<path class="orbcls-3" d="M230.24,489l-15.16-1.84,3.27-27,4.38.53-2.8,23.13,10.78,1.3Z"/>
<path class="orbcls-3" d="M235.13,489.27l.8-27.21,17.17.5-.11,3.86L240.23,466l-.23,7.71,10.38.3-.12,3.82-10.37-.3-.24,7.94,12.76.38-.11,3.89Z"/>
<path class="orbcls-3" d="M254.22,466.51l-.26-3.94,19.83-1.3.26,3.93-7.65.5L267.93,489l-4.44.29L262,466Z"/>
<path class="orbcls-3" d="M277.18,469.93l-1.34-9.13,4.18-.55.94,9.17Z"/>
<path class="orbcls-3" d="M293,461.43c-3.3.67-4.72,2.17-4.25,4.48a2.89,2.89,0,0,0,1.69,2.31A22.8,22.8,0,0,0,296,469a13.94,13.94,0,0,1,6.17,1.51c1.3.8,2.17,2.31,2.62,4.51q.85,4.21-1.11,6.78a9.79,9.79,0,0,1-6.1,3.41,39.14,39.14,0,0,1-7.49.71l-1.45,0-.28-3.56a67.26,67.26,0,0,0,8.17-.93q4.83-1,4-5.27a2.92,2.92,0,0,0-1.6-2.25,17.15,17.15,0,0,0-5.26-.75,13.58,13.58,0,0,1-6.23-1.48q-2.21-1.29-2.94-4.92a6.68,6.68,0,0,1,1.24-5.95,10.51,10.51,0,0,1,6.15-3.17,43.5,43.5,0,0,1,7.23-.75l1.41,0,.37,3.58C297.15,460.81,294.54,461.13,293,461.43Z"/>
<path class="orbcls-3" d="M328.27,465.34l-1.3-3.67,7.31-2.59,4.62,13a33.63,33.63,0,0,1-3.91,2c-2,.93-3.44,1.56-4.37,1.88q-5.83,2.09-9.2-.36t-5.78-9.32q-2.44-6.87-1.29-10.82t6.74-5.93a43.83,43.83,0,0,1,7.68-1.88l1.41-.21,1,3.35a68.11,68.11,0,0,0-8.34,2.29c-2.4.85-3.8,2.1-4.21,3.77s0,4.32,1.33,8,2.6,6,3.93,7.11,3.26,1.18,5.81.28a19.16,19.16,0,0,0,4-1.79l-2.21-6.25Z"/>
<path class="orbcls-3" d="M345.42,469.85l-11.64-24.62,15.53-7.34,1.65,3.49-11.54,5.45,3.3,7,9.38-4.43,1.63,3.45-9.38,4.44,3.39,7.18L359.28,459l1.66,3.52Z"/>
<path class="orbcls-3" d="M352.09,440.91l-2-3.39,17.09-10.14,2,3.38-6.6,3.92,11.89,20L370.64,457l-11.89-20Z"/>
<path class="orbcls-3" d="M390.22,432.25l6.07,7.56-3.45,2.76-17-21.24,8.06-6.47q7.2-5.76,12.62,1,3.63,4.53,1.45,8.93l10.2,5.53-3.79,3-9.14-5.11ZM393,418.72q-3.06-3.81-6.72-.88l-4.62,3.71,6.19,7.72,4.68-3.76a4.23,4.23,0,0,0,1.88-3.26A5.62,5.62,0,0,0,393,418.72Z"/>
<path class="orbcls-3" d="M412.81,426,393.67,406.6l12.21-12.08,2.71,2.75-9.07,9,5.42,5.48,7.38-7.29,2.68,2.71-7.38,7.3,5.59,5.65,9.08-9,2.74,2.77Z"/>
<path class="orbcls-3" d="M427.7,411.11,411,388.6l5.59-6.78,25.31,12.11L439,397.37l-5.45-2.58-6.65,8.06,3.57,4.86ZM416,388.32l8.49,11.38L430,393l-12.77-6.2Z"/>
<path class="orbcls-3" d="M450.19,381.6,445,389.49l-22.78-14.94,5.17-7.87q3.45-5.26,7.37-5.44t9.61,3.54a31.65,31.65,0,0,1,4.65,3.59,13.61,13.61,0,0,1,2.76,3.74Q453.79,376.11,450.19,381.6Zm-8.3-13q-4.12-2.7-6.63-2.87t-4.61,3.06L427.9,373l16.29,10.68,2.75-4.19q2.15-3.3.45-6a11.83,11.83,0,0,0-2.16-2.44A32.16,32.16,0,0,0,441.89,368.6Z"/>
<path class="orbcls-3" d="M463.44,358.83l-2.06,3.94-9.94-5.18-18.16.17,2.3-4.41,13,.3-7.68-10.56,2.28-4.37,10.29,14.92Z"/>
<path class="orbcls-3" d="M460.24,343.27l-16.35-6.67,1.83-4.23,16,7.4Zm8.61,4.21-5.1-2.21L465.6,341l5.1,2.22Z"/>
</g>
<g id="dots">
<circle class="orbcls-3" cx="30.03" cy="302.27" r="8.08"/>
<circle class="orbcls-3" cx="469.56" cy="302.27" r="8.08"/>
</g>
</g>
<g id="orb-wrap">
<g id="back-green">
<path class="orbcls-4" d="M366,337.46c-2.13-4.25.62-7.88,4.4-9.17-15.27-22.15-15.18-39.63-23.17-65.19-7.41-20.39-23.86-22-42.39-14.6-61.15,20.39-89,79.69-118.6,135.28-4.41,8.83-15.85,14.14-26.85,16a173.48,173.48,0,0,0,67.43,23.8c1.16.15,2.34.27,3.51.41,4.83-13.72,19.75-22.79,30-27.19,27.76-11.44,62.72-17.1,89.65-3.06,2.24-1.56,4.44-3.16,6.6-4.82,8.26-6.35,13.09-9.93,20.08-17.62C386.17,363,373.66,346.64,366,337.46Z"/>
</g>
<g id="back-blue">
<path class="orbcls-5" d="M273,122c10.69-16,23.25-28.68,38.48-36.31a174.34,174.34,0,0,0-61.77-11.24h-.05a12.92,12.92,0,0,0-8,2.87c-37.15,29.42-75.86,88.58-118.64,52.06A174.53,174.53,0,0,0,81.4,202.55C98,239,121.56,298.93,160,283.22,219.27,257.28,234.09,179.44,273,122Z"/>
</g>
<g id="blue-top-main">
<path class="orbcls-6" d="M348.6,194.12c-2.81,6.35-11.22,5.19-16.77,4.35a86.53,86.53,0,0,1-20.35-5.54c-12.17-5-23.88-11.34-35.43-17.62-28.49-15.49-55.42-33.75-83.45-50a248.29,248.29,0,0,0-42-19.83c3.83-1.92,7.35-4.88,11.07-7,4.9-2.88,10-5.52,15.1-7.9a173.58,173.58,0,0,1,30.89-10.9c4.29-1.07,9.12-2.65,13.54-2.8,5.26-.17,11.14,1.38,16.26,2.49a131.17,131.17,0,0,1,22.49,7,159.22,159.22,0,0,1,74.09,62.1,140.17,140.17,0,0,1,11.36,22.06C348.06,177,351.68,187.19,348.6,194.12Z"/>
</g>
<g id="left-gray-main">
<path class="orbcls-7" d="M81.69,235.2A65.74,65.74,0,0,0,75,250.83c-.85-16.91,2.39-34.77,7.17-50.92,2.13-7.2,3.45-11.63,10.55-15.14,6.32-3.12,14.24-1.75,20.71.3,12.71,4,25,12.89,35.57,20.87l23.86,18C142.29,211.06,101.55,200.65,81.69,235.2Z"/>
</g>
<g id="bottom-green-main">
<path class="orbcls-3" d="M301.52,418a175.42,175.42,0,0,1-58.81,7.34c-19.15-.85-31-6.69-46.72-17.49a162.51,162.51,0,0,1-34-31.18c-7.66-9.24-26.77-29.9-20.62-43.14,5.6-12.07,27.39-5.16,36.07-1.51,13.64,5.75,26,13.59,38,22.13C244.54,374.84,269.39,401.76,301.52,418Z"/>
</g>
<g id="bottom-green-bevel-top">
<path class="orbcls-8" d="M376.71,371.26a175.64,175.64,0,0,1-49,35.86c-13.89,6.84-17.16,7.56-29.81.1-33-19.47-59.43-47.78-91.56-68.48-14.92-9.61-70.54-38-73.06-2.84-1.16,16.15,12.23,32.18,21.85,43.93A179.45,179.45,0,0,0,196,416.52a176.62,176.62,0,0,1-98-79.87C82.22,309,65.71,239.58,107.62,224.41c33.94-12.29,66.85,13.2,93.2,31.1,24.42,16.59,48.17,34.12,71.75,51.87,14.25,10.74,28.06,22,42.55,32.46C331.45,351.61,355.27,373.21,376.71,371.26Z"/>
</g>
<g id="right-gray-main">
<path class="orbcls-9" d="M423,280.24a174.2,174.2,0,0,1-27.28,67.43c-13.09,19.39-30.26,12-48.74,1.49-25.94-14.71-60.81-46.13-71.55-53.43C324.16,326,395.82,345.77,423,280.24Z"/>
</g>
<g id="blue-main">
<path class="orbcls-10" d="M423.69,248.36c-4.25,28.05-20.79,58.27-51.13,63.55-27.08,4.71-53.91-6.72-77.54-18.35-46.93-23.09-86.56-56.95-128.63-87.47-20.25-14.69-47.34-36.76-73.86-33a175.49,175.49,0,0,1,33.33-46.92q4.94-5,10.26-9.55c5.64-4.84,6.87-4.15,14-1.51a210.06,210.06,0,0,1,22,9.67c29.71,14.95,57.29,34,85.86,51,21.87,13,46,27.63,71.47,31.69,45.56,7.27,25.35-43.79,11.79-65a171.79,171.79,0,0,0-46.29-48c-13.1-9.12-30.5-19.54-46.94-19.93,18.73-2.84,41,3.21,58.64,9.17A175.52,175.52,0,0,1,368,119.81C401.42,150.06,430.82,201.79,423.69,248.36Z"/>
<path class="orbcls-11" d="M255.65,74.48l.55,0C257,74.53,256.67,74.53,255.65,74.48Z"/>
</g>
<g id="bottom-green-bevel-bottom">
<path class="orbcls-12" d="M354.12,391.06a174.93,174.93,0,0,1-26.4,16.06c-13.88,6.84-17.16,7.56-29.8.1-33-19.48-59.43-47.78-91.57-68.48-14.92-9.62-70.53-38-73.07-2.83-1.15,16.14,12.23,32.17,21.85,43.92A179.24,179.24,0,0,0,196,416.52a175.71,175.71,0,0,1-63.6-37.06c-8-14.31-14.29-29.47-17.79-45.57-8.51-39.2,11.62-71.06,55.61-63.22,42.29,7.55,74.06,44,105.58,70.37A348.84,348.84,0,0,0,354.12,391.06Z"/>
<path class="orbcls-13" d="M185.08,412.53A176.58,176.58,0,0,1,98,336.65c-8.21-14.4-16.62-40.2-16.86-63.7,1.61,21.46,9.17,43.65,16.54,56.6A176.54,176.54,0,0,0,163.19,395a164.69,164.69,0,0,0,16.44,13.71C181.5,410.05,183.3,411.33,185.08,412.53Z"/>
</g>
<g id="top-blue-shadow">
<path class="orbcls-14" d="M275.79,150.72c-19.61-4.84-47.26-22.24-73.31-35.14-2.81-1.39-25.17-11.88-39.31-18,4.43-2.54,9-4.89,13.64-7a173.48,173.48,0,0,1,30.88-10.9c4.28-1.07,9.11-2.65,13.54-2.8,5.27-.16,11.14,1.38,16.26,2.49a130.05,130.05,0,0,1,22.49,7,163.47,163.47,0,0,1,37.18,21.5,41,41,0,0,1,6.13,15.4C306.79,143.88,300.44,156.8,275.79,150.72Z"/>
<path class="orbcls-15" d="M348.6,194.12c-2.8,6.36-11.21,5.19-16.77,4.35a86.4,86.4,0,0,1-20.35-5.54c-12.17-5-23.87-11.34-35.43-17.62-28.48-15.49-55.41-33.75-83.45-50a249.06,249.06,0,0,0-42-19.83c3.83-1.92,7.35-4.87,11.08-7.06.48-.27,1-.57,1.46-.85h0c14.14,6.17,36.47,16.66,39.29,18,26.05,12.9,53.7,30.3,73.31,35.14,24.65,6.08,31-6.84,27.5-27.5a41,41,0,0,0-6.13-15.4,156.92,156.92,0,0,1,36.91,40.58,140.27,140.27,0,0,1,11.36,22.07C348.06,177,351.68,187.19,348.6,194.12Z"/>
</g>
<g id="blue-main-bottom-shadow">
<path class="orbcls-16" d="M423.69,248.36c-4.26,28.06-20.79,58.27-51.13,63.55-27.09,4.72-53.91-6.71-77.55-18.35-46.92-23.09-86.55-56.95-128.63-87.47-20.24-14.7-47.33-36.77-73.85-33,1.28-2.63,2.61-5.22,4-7.78,25.2-1.21,50.59,19.38,69.81,33.34,42.08,30.52,81.71,64.38,128.63,87.47,23.64,11.64,50.46,23.07,77.55,18.34C402.9,299.21,419.43,269,423.69,241a95.09,95.09,0,0,0,1-10.79A97,97,0,0,1,423.69,248.36Z"/>
</g>
<g id="left-gray-bevel">
<path class="orbcls-17" d="M172.83,223.92c-30.54-12.86-71.28-23.28-91.14,11.28A65.16,65.16,0,0,0,75,250.83S75.54,175.25,172.83,223.92Z"/>
</g>
<g id="right-gray-bevel">
<path class="orbcls-18" d="M423,280.29a174.31,174.31,0,0,1-27.26,67.38c-13.09,19.39-30.26,12-48.74,1.49-22.22-12.59-51-37.48-65.55-48.93,19.92,14.77,83.62,60.19,102.3,52C405.59,342.69,422.41,282.4,423,280.29Z"/>
</g>
<g id="top-blue-bevel">
<path class="orbcls-19" d="M348.6,194.12c-2.8,6.36-11.21,5.19-16.77,4.35a86.4,86.4,0,0,1-20.35-5.54c-12.17-5-23.87-11.34-35.43-17.62-28.48-15.49-55.41-33.75-83.45-50A278.86,278.86,0,0,0,167,112a257.55,257.55,0,0,1,29.65,13.44c27.26,14.34,53.54,30.61,81.21,44.18,11.21,5.52,22.57,11,34.34,15.34a83.34,83.34,0,0,0,19.55,4.49c5.32.57,13.36,1.37,15.79-4.75a14,14,0,0,0,.89-5.57C349.84,184.28,350.51,189.82,348.6,194.12Z"/>
</g>
<g id="blue-main-highlight">
<path class="orbcls-20" d="M403.64,215.82c-.74-33.78-16.1-71.07-39.6-99.48l0,0q-4.08-3.5-8.36-6.69a0,0,0,0,1,0,0,176,176,0,0,0-30.7-18.51l9,6.41c35.73,26.95,61.34,75.67,62.29,118.46.35,16.44-4.34,28.76-14,36.65-8.58,7.05-21.48,10.75-37.32,10.75a125,125,0,0,1-27-3.15C272,250,244.79,217.8,216,183.69c-2.76-3.27-5.52-6.55-8.34-9.83-24.09-28.18-53.65-40.77-81.33-48.09l-.43.43c-1.35,1.37-2.69,2.76-4,4.17-.49.52-.95,1-1.43,1.56,27.67,6.89,57.6,18.71,81.56,46.75,2.8,3.28,5.56,6.54,8.32,9.79,29.67,35.11,57.69,68.27,106.11,79a134.18,134.18,0,0,0,28.86,3.43c22.35,0,35.26-7.23,41.71-12.55C398.45,248.94,404.07,234.63,403.64,215.82Z"/>
</g>
<g id="blue-main-shadow">
<path class="orbcls-21" d="M423.69,248.36c-4.26,28.06-20.79,58.27-51.13,63.55-27.09,4.72-53.91-6.71-77.55-18.35-46.92-23.09-86.55-56.95-128.63-87.47-20.24-14.7-47.33-36.77-73.85-33a175.21,175.21,0,0,1,27.89-41.19c27.67,6.89,57.6,18.71,81.56,46.75,2.8,3.28,5.56,6.54,8.32,9.79,29.67,35.11,57.69,68.27,106.11,79a134.18,134.18,0,0,0,28.86,3.43c22.35,0,35.26-7.23,41.71-12.55,11.47-9.41,17.09-23.72,16.66-42.53-.74-33.78-16.1-71.07-39.6-99.48,1.33,1.13,2.67,2.28,4,3.47C401.42,150.07,430.81,201.79,423.69,248.36Z"/>
</g>
<g id="green-main-bevel-shadow">
<path class="orbcls-22" d="M368.21,379.55a176.59,176.59,0,0,1-40.49,27.57c-13.88,6.84-17.16,7.56-29.8.1-33-19.48-59.43-47.78-91.57-68.48-14.53-9.38-67.71-36.56-72.77-5.39a23.14,23.14,0,0,1-.13-5.45c4-33.56,53.88-9.84,68.83-.2,32.25,20.75,65.63,52.2,96.21,72.27,12.31,8.1,14,7.71,28.28,1.56A306.45,306.45,0,0,0,368.21,379.55Z"/>
</g>
<g id="bottom-green-bevel-bottom-2" data-name="bottom-green-bevel-bottom">
<path class="orbcls-23" d="M299.18,418.72a175.21,175.21,0,0,1-56.47,6.66c-19.14-.86-31-6.69-46.72-17.48a163.68,163.68,0,0,1-34-31.19c-7.65-9.24-26.76-29.91-20.62-43.14a10.39,10.39,0,0,1,1.55-2.43c-5.18,13.27,13.4,33.38,20.93,42.48a162.88,162.88,0,0,0,34,31.19c15.71,10.78,27.57,16.64,46.71,17.49S281,423.76,299.18,418.72Z"/>
</g>
<g id="right-shadow">
<g class="orbcls-24">
<path class="orbcls-25" d="M178.2,393.78A163,163,0,0,0,196,407.9c15.72,10.79,27.58,16.62,46.72,17.48A175.48,175.48,0,0,0,301.53,418c-21-10.62-38.84-25.78-56.8-40.75A213.4,213.4,0,0,1,178.2,393.78Z"/>
<path class="orbcls-25" d="M315.11,339.85c-2.16-1.55-4.33-3.15-6.48-4.76a214.65,214.65,0,0,1-56.3,38.77c14.58,11.95,29.28,23.74,45.59,33.36,12.64,7.46,15.92,6.74,29.8-.1q6.94-3.42,13.56-7.45c1.1-.66,2.19-1.35,3.28-2.05q4.89-3.12,9.56-6.56a175.81,175.81,0,0,0,22.59-19.8C355.27,373.21,331.44,351.6,315.11,339.85Z"/>
<path class="orbcls-25" d="M324.38,318.34c-2,2.46-4.19,4.87-6.39,7.22-.67.76-1.37,1.51-2.08,2.25a314.12,314.12,0,0,0,27.3,19.12c.56.35,1.13.69,1.69,1s1.39.84,2.09,1.23c18.48,10.47,35.65,17.9,48.74-1.49a176.87,176.87,0,0,0,20.42-40.86c1-2.87,1.89-5.76,2.74-8.69q.64-2.22,1.23-4.47.86-3.27,1.55-6.58c.23-1.09.47-2.2.67-3.29s.43-2.23.61-3.34a.42.42,0,0,0,0-.15C404.07,325.82,363.63,330.12,324.38,318.34Z"/>
<path class="orbcls-25" d="M424.69,230.16c-1.52-41.34-27.57-84-56.69-110.35-.61-.56-1.22-1.12-1.85-1.63a215.08,215.08,0,0,1-29.59,184.35c-1.45,2.09-2.95,4.17-4.51,6.21,13.18,3.82,26.82,5.56,40.51,3.17,30.34-5.28,46.87-35.49,51.13-63.55A97,97,0,0,0,424.69,230.16Z"/>
<path class="orbcls-25" d="M162.38,394.5c-.69,0-1.38,0-2.06,0-3.08,0-6.14,0-9.17-.2.7.48,1.42,1,2.15,1.44.35.24.7.49,1.07.73s.89.57,1.33.87l2.19,1.37c.32.2.61.39.93.57.57.37,1.17.73,1.74,1.06l1.41.85.22.13,3.15,1.78c.74.41,1.48.82,2.24,1.22l1.39.74c.69.38,1.39.73,2.1,1.1l.31.15a1.83,1.83,0,0,0,.28.14c.3.15.57.3.87.43q1,.5,1.95,1l.48.23c1.11.53,2.22,1.05,3.33,1.55l.49.23c1,.42,1.92.85,2.89,1.26.35.14.68.27,1,.42l.48.21,1.89.77h0c.78.34,1.57.65,2.37,1,1.37.54,2.76,1,4.15,1.54s2.91,1,4.39,1.5a186,186,0,0,1-27.61-22.17C166.4,394.45,164.4,394.48,162.38,394.5Z"/>
</g>
</g>
<g id="gray-right-bevel-shadow">
<path class="orbcls-26" d="M423,280.29a174.31,174.31,0,0,1-27.26,67.38c-13.09,19.39-30.26,12-48.74,1.49-22.22-12.59-51-37.48-65.55-48.93,19.92,14.77,83.62,60.19,102.3,52C405.59,342.69,422.41,282.4,423,280.29Z"/>
</g>
<g id="blue-main-bevel-shadow">
<path class="orbcls-27" d="M423.69,248.36c-4.26,28.06-20.79,58.27-51.13,63.55-27.09,4.72-53.91-6.71-77.55-18.35-46.92-23.09-86.55-56.95-128.63-87.47-20.24-14.7-47.33-36.77-73.85-33,1.28-2.63,2.61-5.22,4-7.78,25.2-1.21,50.59,19.38,69.81,33.34,42.08,30.52,81.71,64.38,128.63,87.47,23.64,11.64,50.46,23.07,77.55,18.34C402.9,299.21,419.43,269,423.69,241a95.09,95.09,0,0,0,1-10.79A97,97,0,0,1,423.69,248.36Z"/>
</g>
<g id="left-gray-bevel-bottom-shadow">
<path class="orbcls-28" d="M172.83,223.92c-30.54-12.86-71.28-23.28-91.14,11.28A65.16,65.16,0,0,0,75,250.83S75.54,175.25,172.83,223.92Z"/>
</g>
<g id="blue-top-bevel-shadow">
<path class="orbcls-29" d="M349.4,150.57a86.19,86.19,0,0,1,6.65,25.8c-2.94-12.33-9.39-25.47-14.79-33.88a171.81,171.81,0,0,0-46.29-48c-13.08-9.11-30.48-19.53-46.92-19.92,11.49-1.74,24.33-.13,36.6,2.74,11.3,6.62,21.94,14.11,27.43,19.43A168.65,168.65,0,0,1,349.4,150.57Z"/>
</g>
</g>
</g>
</svg>