<svg id="Silicon-Harlem-Logo-3D-White" xmlns="http://www.w3.org/2000/svg" xmlns:xlink="http://www.w3.org/1999/xlink" viewBox="0 0 618 388"><defs><style>.cls-1,.cls-2,.cls-3,.cls-4{fill:none;}.cls-1,.cls-10,.cls-11,.cls-16,.cls-17,.cls-3,.cls-5,.cls-6,.cls-7,.cls-8{stroke:#1f1a4c;}.cls-1,.cls-10,.cls-11,.cls-16,.cls-17,.cls-2,.cls-3,.cls-32,.cls-33,.cls-34,.cls-35,.cls-37,.cls-38,.cls-4,.cls-43,.cls-44,.cls-5,.cls-6,.cls-7,.cls-8{stroke-miterlimit:10;}.cls-1,.cls-10,.cls-11,.cls-16,.cls-17,.cls-5,.cls-6,.cls-7,.cls-8{stroke-width:6px;}.cls-2,.cls-32,.cls-33,.cls-34,.cls-35,.cls-37,.cls-38,.cls-4,.cls-43,.cls-44{stroke:#fff;}.cls-2,.cls-32,.cls-33,.cls-34,.cls-35,.cls-37,.cls-38,.cls-43,.cls-44{stroke-width:2px;}.cls-3{stroke-width:10px;}.cls-4{stroke-width:3px;}.cls-32,.cls-5{fill:#818181;}.cls-33,.cls-6{fill:#878787;}.cls-34,.cls-7{fill:#e6e6e5;}.cls-35,.cls-8{fill:#888;}.cls-9{clip-path:url(#clip-path);}.cls-10,.cls-37{fill:#858585;}.cls-11,.cls-38{fill:#8f8f8f;}.cls-12{clip-path:url(#clip-path-2);}.cls-13{clip-path:url(#clip-path-3);}.cls-14{clip-path:url(#clip-path-4);}.cls-15{clip-path:url(#clip-path-5);}.cls-16,.cls-43{fill:#908f8f;}.cls-17,.cls-44{fill:#8b8a8b;}.cls-18{clip-path:url(#clip-path-6);}.cls-19{clip-path:url(#clip-path-7);}.cls-20{clip-path:url(#clip-path-8);}.cls-21{clip-path:url(#clip-path-9);}.cls-22{clip-path:url(#clip-path-10);}.cls-23{clip-path:url(#clip-path-11);}.cls-24{clip-path:url(#clip-path-12);}.cls-25{clip-path:url(#clip-path-13);}.cls-26{clip-path:url(#clip-path-14);}.cls-27{clip-path:url(#clip-path-15);}.cls-28{clip-path:url(#clip-path-16);}.cls-29{clip-path:url(#clip-path-17);}.cls-30{clip-path:url(#clip-path-18);}.cls-31{clip-path:url(#clip-path-19);}.cls-36{clip-path:url(#clip-path-20);}.cls-39{clip-path:url(#clip-path-21);}.cls-40{clip-path:url(#clip-path-22);}.cls-41{clip-path:url(#clip-path-23);}.cls-42{clip-path:url(#clip-path-24);}.cls-45{clip-path:url(#clip-path-25);}.cls-46{clip-path:url(#clip-path-26);}.cls-47{clip-path:url(#clip-path-27);}.cls-48{clip-path:url(#clip-path-28);}.cls-49{clip-path:url(#clip-path-29);}.cls-50{clip-path:url(#clip-path-30);}.cls-51{clip-path:url(#clip-path-31);}.cls-52{clip-path:url(#clip-path-32);}.cls-53{clip-path:url(#clip-path-33);}.cls-54{clip-path:url(#clip-path-34);}.cls-55{clip-path:url(#clip-path-35);}.cls-56{clip-path:url(#clip-path-36);}.cls-57{clip-path:url(#clip-path-37);}.cls-58{clip-path:url(#clip-path-38);}</style><clipPath id="clip-path"><path class="cls-1" d="M287,243.32h-4.5A39.93,39.93,0,0,0,292.42,216h4.51A40.06,40.06,0,0,1,287,243.32Z"/></clipPath><clipPath id="clip-path-2"><path class="cls-1" d="M278.2,147.7h-4.48a39.3,39.3,0,0,0-7.33-17.82h4.48A38.93,38.93,0,0,1,278.2,147.7Z"/></clipPath><clipPath id="clip-path-3"><path class="cls-1" d="M296.93,215.94h-4.51c0-17.61-12.56-37.13-40.58-41.07h4.48C284.37,178.81,296.93,198.33,296.93,215.94Z"/></clipPath><clipPath id="clip-path-4"><path class="cls-1" d="M273.77,235.55h-4.5A24.87,24.87,0,0,0,277,216.82c0-13.93-10.36-24.37-26.68-26.59h4.51c16.21,2.22,26.67,12.66,26.67,26.59A24.92,24.92,0,0,1,273.77,235.55Z"/></clipPath><clipPath id="clip-path-5"><path class="cls-1" d="M239,246.53h-4.48c15.54,0,27.27-3.68,34.73-11h4.5C266.32,242.85,254.61,246.53,239,246.53Z"/></clipPath><clipPath id="clip-path-6"><path class="cls-1" d="M239,261.27h-4.56c20.38,0,37.86-6.56,48-18h4.5C276.86,254.71,259.35,261.27,239,261.27Z"/></clipPath><clipPath id="clip-path-7"><path class="cls-1" d="M270.87,129.88h-4.48c-7-8.33-18.9-12.94-33.43-12.94h4.5C252,116.91,263.88,121.6,270.87,129.88Z"/></clipPath><clipPath id="clip-path-8"><path class="cls-1" d="M293.17,146.23h-4.38a48,48,0,0,0-11-26.08c-9.42-11.24-25.71-17.67-44.67-17.67h4.5c19,0,35.23,6.43,44.68,17.67A48.11,48.11,0,0,1,293.17,146.23Z"/></clipPath><clipPath id="clip-path-9"><path class="cls-1" d="M227.62,170.8h-4.5c-20.72-2.77-30.38-11.37-30.38-27.06,0-8.37,4.45-16.26,12.59-22.19,6.75-5,15.53-7.31,27.63-7.31h4.5c-12.09,0-20.9,2.31-27.63,7.31-8.13,5.93-12.59,13.82-12.59,22.19C197.24,159.51,206.88,168.21,227.62,170.8Z"/></clipPath><clipPath id="clip-path-10"><path class="cls-1" d="M195.56,114.94h-4.48c10.36-9.84,24.76-15,41.9-15h4.51C220.32,99.89,205.92,105.1,195.56,114.94Z"/></clipPath><clipPath id="clip-path-11"><path class="cls-1" d="M239,249.15h-4.48c-15.72,0-28-4.28-36.54-12.64a38.22,38.22,0,0,1-11.5-23.31H191a38.38,38.38,0,0,0,11.48,23.31C211.1,244.87,223.32,249.15,239,249.15Z"/></clipPath><clipPath id="clip-path-12"><path class="cls-1" d="M239,263.83h-4.56c-21.5,0-39.52-7.12-50.81-20h4.5C199.45,256.71,217.5,263.83,239,263.83Z"/></clipPath><clipPath id="clip-path-13"><path class="cls-1" d="M181.86,145.4h-4.43a40.89,40.89,0,0,1,13.68-30.46h4.45A41,41,0,0,0,181.86,145.4Z"/></clipPath><clipPath id="clip-path-14"><path class="cls-1" d="M225.58,186.34h-4.51c-15.85-1.94-27.61-7.25-34.94-15.74a37.25,37.25,0,0,1-8.7-25.2h4.48a37.26,37.26,0,0,0,8.78,25.09C198,179,209.7,184.3,225.58,186.34Z"/></clipPath><clipPath id="clip-path-15"><path class="cls-1" d="M188.18,243.78h-4.51A47.45,47.45,0,0,1,171,211.93h4.5A47.35,47.35,0,0,0,188.18,243.78Z"/></clipPath><clipPath id="clip-path-16"><path class="cls-1" d="M445.19,157.34h-4.48c0-34.86-18.93-54.86-51.79-54.86h4.5C426.29,102.48,445.19,122.48,445.19,157.34Z"/></clipPath><clipPath id="clip-path-17"><path class="cls-1" d="M430.15,158.24h-4.51c0-27.81-12.33-41.43-37.68-41.43h4.43C417.82,116.91,430.15,130.43,430.15,158.24Z"/></clipPath><clipPath id="clip-path-18"><path class="cls-1" d="M343.57,128h-4.48a58.29,58.29,0,0,1,49.72-28.1h4.51A58.35,58.35,0,0,0,343.57,128Z"/></clipPath><clipPath id="clip-path-19"><path class="cls-1" d="M341,181.89h-4.5c0-42.29,19.24-67.57,51.43-67.57h4.43C360.27,114.32,341,139.73,341,181.89Z"/></clipPath><clipPath id="clip-path-20"><path class="cls-2" d="M285.72,239.12h-4.5a39.89,39.89,0,0,0,9.94-27.35h4.51A40.06,40.06,0,0,1,285.72,239.12Z"/></clipPath><clipPath id="clip-path-21"><path class="cls-2" d="M276.94,143.5h-4.48a39.19,39.19,0,0,0-7.33-17.82h4.48A38.93,38.93,0,0,1,276.94,143.5Z"/></clipPath><clipPath id="clip-path-22"><path class="cls-2" d="M295.67,211.74h-4.51c0-17.61-12.56-37.13-40.58-41.07h4.48C283.11,174.61,295.67,194.13,295.67,211.74Z"/></clipPath><clipPath id="clip-path-23"><path class="cls-2" d="M272.52,231.35H268a24.87,24.87,0,0,0,7.77-18.73c0-13.93-10.36-24.37-26.68-26.59h4.51c16.21,2.22,26.67,12.66,26.67,26.59A25,25,0,0,1,272.52,231.35Z"/></clipPath><clipPath id="clip-path-24"><path class="cls-2" d="M237.76,242.33h-4.48c15.54,0,27.27-3.68,34.73-11h4.51C265.06,238.65,253.35,242.33,237.76,242.33Z"/></clipPath><clipPath id="clip-path-25"><path class="cls-2" d="M237.71,257.07h-4.56c20.38,0,37.86-6.56,48-18h4.51C275.6,250.51,258.09,257.07,237.71,257.07Z"/></clipPath><clipPath id="clip-path-26"><path class="cls-2" d="M269.61,125.68h-4.48c-7-8.33-18.9-12.94-33.43-12.94h4.51C250.74,112.71,262.62,117.4,269.61,125.68Z"/></clipPath><clipPath id="clip-path-27"><path class="cls-2" d="M291.91,142h-4.37a48,48,0,0,0-11-26.08c-9.42-11.24-25.71-17.67-44.67-17.67h4.51c18.95,0,35.22,6.43,44.67,17.67A48.11,48.11,0,0,1,291.91,142Z"/></clipPath><clipPath id="clip-path-28"><path class="cls-2" d="M226.36,166.6h-4.5c-20.72-2.77-30.38-11.37-30.38-27.06,0-8.37,4.45-16.26,12.59-22.2,6.76-5,15.54-7.3,27.63-7.3h4.51c-12.1,0-20.9,2.31-27.64,7.3-8.13,5.94-12.58,13.83-12.58,22.2C196,155.31,205.62,164,226.36,166.6Z"/></clipPath><clipPath id="clip-path-29"><path class="cls-2" d="M194.3,110.74h-4.48c10.36-9.84,24.76-15,41.91-15h4.5C219.06,95.69,204.66,100.9,194.3,110.74Z"/></clipPath><clipPath id="clip-path-30"><path class="cls-2" d="M237.76,245h-4.48c-15.72,0-28-4.28-36.54-12.64A38.22,38.22,0,0,1,185.24,209h4.5a38.38,38.38,0,0,0,11.48,23.31C209.84,240.67,222.07,245,237.76,245Z"/></clipPath><clipPath id="clip-path-31"><path class="cls-2" d="M237.71,259.63h-4.56c-21.5,0-39.52-7.12-50.81-20h4.5C198.19,252.51,216.24,259.63,237.71,259.63Z"/></clipPath><clipPath id="clip-path-32"><path class="cls-2" d="M180.6,141.2h-4.43a40.93,40.93,0,0,1,13.68-30.46h4.45A41,41,0,0,0,180.6,141.2Z"/></clipPath><clipPath id="clip-path-33"><path class="cls-2" d="M224.32,182.14h-4.51c-15.85-1.94-27.6-7.25-34.93-15.74a37.31,37.31,0,0,1-8.71-25.2h4.48a37.31,37.31,0,0,0,8.78,25.09C196.71,174.79,208.44,180.1,224.32,182.14Z"/></clipPath><clipPath id="clip-path-34"><path class="cls-2" d="M186.92,239.58h-4.5a47.41,47.41,0,0,1-12.72-31.85h4.51A47.29,47.29,0,0,0,186.92,239.58Z"/></clipPath><clipPath id="clip-path-35"><path class="cls-2" d="M443.94,153.14h-4.48c0-34.86-18.94-54.86-51.8-54.86h4.51C425,98.28,443.94,118.28,443.94,153.14Z"/></clipPath><clipPath id="clip-path-36"><path class="cls-2" d="M428.89,154h-4.51c0-27.81-12.33-41.43-37.68-41.43h4.43C416.56,112.71,428.89,126.23,428.89,154Z"/></clipPath><clipPath id="clip-path-37"><path class="cls-2" d="M342.31,123.79h-4.48a58.29,58.29,0,0,1,49.73-28.1h4.5A58.35,58.35,0,0,0,342.31,123.79Z"/></clipPath><clipPath id="clip-path-38"><path class="cls-2" d="M339.77,177.69h-4.5c0-42.29,19.24-67.57,51.43-67.57h4.43C359,110.12,339.77,135.53,339.77,177.69Z"/></clipPath></defs><title>SH-Logo</title><g id="Logo_Group" data-name="Logo Group"><g id="siliconharlem-text-dark"><g id="dark-silicon"><path class="cls-3" d="M96.56,332.22A17.25,17.25,0,0,1,84,336.56a17.23,17.23,0,0,1-12.49-4.34,12.48,12.48,0,0,1-3.73-8.79h6.51a7.5,7.5,0,0,0,3.08,5.86,12.38,12.38,0,0,0,7,1.76,10.42,10.42,0,0,0,7.06-2.14,5.48,5.48,0,0,0,1.91-4.19c0-2.93-2-4.93-5.86-5.49-1.68-.23-5.87-.76-8.8-1.14a10,10,0,0,1-9.44-10.35,11,11,0,0,1,3.19-7.53A15.76,15.76,0,0,1,83.72,296,15.39,15.39,0,0,1,96,300.82a11.09,11.09,0,0,1,2.72,7.39H92.25A7,7,0,0,0,90,303.4a9,9,0,0,0-6.31-2,9.82,9.82,0,0,0-4.48.76,5.85,5.85,0,0,0-3.9,5.19c0,3.2,2,4.55,5.19,5,2.14.33,5.16.62,9.26,1.3a11,11,0,0,1,6.77,18.61Z"/><path class="cls-3" d="M109.88,288.24v-7.62h7.53v7.62Zm.44,47.33V297h6.62v38.5Z"/><path class="cls-3" d="M138.58,336c-5.63,0-8.06-3.35-8.06-9.44v-46H137v45.59c0,2.58.85,4,3.52,4a19.82,19.82,0,0,0,2.67,0v5.49A17.17,17.17,0,0,1,138.58,336Z"/><path class="cls-3" d="M152,288.24v-7.62h7.53v7.62Zm.47,47.33V297h6.62v38.5Z"/><path class="cls-3" d="M198.34,332.22a15.33,15.33,0,0,1-11.12,4.2,15.63,15.63,0,0,1-14-7.13,27.94,27.94,0,0,1,0-26.12,15.8,15.8,0,0,1,14-7.22,14.86,14.86,0,0,1,15.54,14.22h-6.62a10.43,10.43,0,0,0-2.76-6.21,8.81,8.81,0,0,0-6.24-2.38c-8.45,0-10.59,7.3-10.59,14.66s2,14.66,10.67,14.66a8.74,8.74,0,0,0,6.45-2.58,10.27,10.27,0,0,0,2.61-5.86h6.54A14.92,14.92,0,0,1,198.34,332.22Z"/><path class="cls-3" d="M238.83,332a17.39,17.39,0,0,1-23.46,0,25.39,25.39,0,0,1,0-31.52,17.39,17.39,0,0,1,23.46,0A25.39,25.39,0,0,1,238.83,332Zm-4.72-27.71a10.06,10.06,0,0,0-13.84,0,21.6,21.6,0,0,0,0,23.9,10.16,10.16,0,0,0,13.84,0A21.79,21.79,0,0,0,234.11,304.31Z"/><path class="cls-3" d="M279.79,335.51V311.08c0-5.86-2.38-9.2-8.44-9.2a9.44,9.44,0,0,0-8.39,5.86,25.41,25.41,0,0,0-1.38,9.82v17.89h-6.45V297h5.63l.53,5.86A13,13,0,0,1,273,296.13c8.79,0,13.34,5.25,13.34,14.16v25.33Z"/></g><g id="harlem"><path class="cls-3" d="M342.7,335.51V311.08c0-5.86-2.38-9.2-8.48-9.2a9.39,9.39,0,0,0-8.35,5.86,25.41,25.41,0,0,0-1.38,9.82v17.89H318V280.56h6.48v21.55a13,13,0,0,1,11.26-6.1c8.79,0,13.4,5.25,13.4,14.16v25.34Z"/><path class="cls-3" d="M390.34,336.06a5.48,5.48,0,0,1-5.58-5.38c0-.16,0-.32,0-.48h-.14a14,14,0,0,1-12.41,6.33c-8.79,0-13.25-5.86-13.25-11.87,0-5,3.2-11.41,13.69-12l11.73-.71V309a7.56,7.56,0,0,0-2-5.86,8.83,8.83,0,0,0-6.34-2,9.66,9.66,0,0,0-7,2.29,6.29,6.29,0,0,0-1.88,4.66h-6.33a11.55,11.55,0,0,1,3.34-8.09A16.67,16.67,0,0,1,376,295.92c7.47,0,11.73,3.2,13.57,7.36a15.55,15.55,0,0,1,1.12,5.87V327.8c0,2.05.85,2.61,2.14,2.61a9.47,9.47,0,0,0,1.67-.24v5A8.72,8.72,0,0,1,390.34,336.06ZM384.48,317l-10.35.61c-3.87.24-8.45,2.06-8.45,6.92,0,3.43,2.15,6.63,7.63,6.63a10.78,10.78,0,0,0,7.91-3.14,12.36,12.36,0,0,0,3.26-8.79Z"/><path class="cls-3" d="M421.72,302.9a10.53,10.53,0,0,0-7.33,2.93c-3.11,2.94-3.49,8.3-3.49,12.32v17.12h-6.39V297h5.86l.53,6.77a11.93,11.93,0,0,1,11.49-7,18,18,0,0,1,2.93.24v6.3A19,19,0,0,0,421.72,302.9Z"/><path class="cls-3" d="M441.19,336c-5.63,0-8.07-3.35-8.07-9.44v-46h6.48v45.59c0,2.58.82,4,3.49,4a19.82,19.82,0,0,0,2.67,0v5.49A16.73,16.73,0,0,1,441.19,336Z"/><path class="cls-3" d="M485.72,318.38H458.46a14.25,14.25,0,0,0,3.72,9.68,10.92,10.92,0,0,0,14.25.23,8.3,8.3,0,0,0,2.29-4.19H485a14.22,14.22,0,0,1-5.86,9.53,17.8,17.8,0,0,1-9.83,2.93,16.5,16.5,0,0,1-12.81-5.86,21.83,21.83,0,0,1-4.78-14.31,23.49,23.49,0,0,1,2.93-12.34A16.57,16.57,0,0,1,469.33,296a15.51,15.51,0,0,1,11.73,5,19.79,19.79,0,0,1,4.87,13.69ZM476.93,305a9.21,9.21,0,0,0-7.63-3.48c-7,0-10.43,5.68-10.58,11.34h20.52a13.48,13.48,0,0,0-2.43-7.86Z"/><path class="cls-3" d="M543.1,335.51V311c0-5.4-1.75-9.12-7.82-9.12a7.88,7.88,0,0,0-5.87,2.58A14.64,14.64,0,0,0,526.13,315v20.53h-6.48V311.05c0-5.39-1.59-9.11-7.74-9.11a8.13,8.13,0,0,0-6.57,3.43,16.94,16.94,0,0,0-2.58,9.73v20.52h-6.45V297h5.6l.61,5.45A11.74,11.74,0,0,1,513.34,296a11.21,11.21,0,0,1,11.5,7.3,12.72,12.72,0,0,1,11.73-7.3c8.79,0,12.87,5.63,12.87,14.16v25.34Z"/></g></g><g id="siliconharlem-text-white"><g id="silicon"><path class="cls-4" d="M96.61,331.83A17.33,17.33,0,0,1,84,336.17a17.32,17.32,0,0,1-12.49-4.34,12.52,12.52,0,0,1-3.73-8.8h6.51a7.47,7.47,0,0,0,3.08,5.86,12.22,12.22,0,0,0,6.95,1.76,10.36,10.36,0,0,0,7.07-2.14,5.51,5.51,0,0,0,1.9-4.19c0-2.93-2-4.93-5.86-5.48-1.67-.24-5.87-.76-8.8-1.15a10,10,0,0,1-9.44-10.35,11.05,11.05,0,0,1,3.2-7.53,15.68,15.68,0,0,1,11.34-4.25A15.34,15.34,0,0,1,96,300.42a11,11,0,0,1,2.73,7.39H92.3A7.08,7.08,0,0,0,90.07,303,9.08,9.08,0,0,0,83.76,301a10,10,0,0,0-4.48.76,5.88,5.88,0,0,0-3.9,5.19c0,3.2,2,4.55,5.19,5,2.14.32,5.16.61,9.26,1.29a11,11,0,0,1,6.78,18.62Z"/><path class="cls-4" d="M109.92,287.85v-7.63h7.53v7.63Zm.44,47.32V296.64H117v38.5Z"/><path class="cls-4" d="M138.62,335.58c-5.63,0-8.06-3.34-8.06-9.44v-46H137v45.6c0,2.58.85,4,3.52,4a23.78,23.78,0,0,0,2.67,0v5.48A16.77,16.77,0,0,1,138.62,335.58Z"/><path class="cls-4" d="M152.08,287.85v-7.63h7.54v7.63Zm.47,47.32V296.64h6.63v38.5Z"/><path class="cls-4" d="M198.38,331.83A15.36,15.36,0,0,1,187.27,336a15.62,15.62,0,0,1-14-7.13,27.94,27.94,0,0,1,0-26.12,15.79,15.79,0,0,1,14-7.21,15.33,15.33,0,0,1,11,4.1,15.55,15.55,0,0,1,4.58,10.12h-6.63a10.45,10.45,0,0,0-2.76-6.22,8.78,8.78,0,0,0-6.24-2.37c-8.45,0-10.59,7.3-10.59,14.66s2,14.66,10.68,14.66a8.81,8.81,0,0,0,6.45-2.58,10.4,10.4,0,0,0,2.61-5.87h6.54A15,15,0,0,1,198.38,331.83Z"/><path class="cls-4" d="M238.87,331.62a17.39,17.39,0,0,1-23.46,0,25.39,25.39,0,0,1,0-31.52,17.39,17.39,0,0,1,23.46,0A25.39,25.39,0,0,1,238.87,331.62Zm-4.72-27.71a10.06,10.06,0,0,0-13.84,0,21.63,21.63,0,0,0,0,23.9,10.16,10.16,0,0,0,13.84,0A21.75,21.75,0,0,0,234.15,303.91Z"/><path class="cls-4" d="M279.83,335.11V310.69c0-5.87-2.37-9.21-8.44-9.21a9.44,9.44,0,0,0-8.39,5.86,25.65,25.65,0,0,0-1.38,9.83v17.88h-6.45V296.64h5.63l.53,5.87a13,13,0,0,1,11.73-6.78c8.8,0,13.34,5.25,13.34,14.16v25.34Z"/></g><g id="harlem-2" data-name="harlem"><path class="cls-4" d="M342.74,335.11V310.69c0-5.87-2.37-9.21-8.47-9.21a9.41,9.41,0,0,0-8.36,5.86,25.46,25.46,0,0,0-1.38,9.83v17.88h-6.48V280.16h6.48v21.55a13,13,0,0,1,11.26-6.09c8.8,0,13.4,5.24,13.4,14.16v25.33Z"/><path class="cls-4" d="M390.39,335.67a5.5,5.5,0,0,1-5.59-5.38,4,4,0,0,1,0-.49h-.15a14,14,0,0,1-12.4,6.34c-8.8,0-13.26-5.87-13.26-11.88,0-4.95,3.2-11.4,13.7-12l11.72-.7V308.6a7.57,7.57,0,0,0-2-5.86,8.75,8.75,0,0,0-6.33-2,9.62,9.62,0,0,0-7,2.28,6.29,6.29,0,0,0-1.88,4.66h-6.33a11.57,11.57,0,0,1,3.34-8.09,16.64,16.64,0,0,1,11.73-4.1c7.48,0,11.73,3.19,13.58,7.36a15.65,15.65,0,0,1,1.11,5.86V327.4c0,2.05.85,2.61,2.14,2.61a9.47,9.47,0,0,0,1.67-.24v5A8.81,8.81,0,0,1,390.39,335.67Zm-5.87-19.12-10.35.62c-3.87.23-8.44,2.05-8.44,6.92,0,3.43,2.14,6.62,7.62,6.62a10.8,10.8,0,0,0,7.92-3.14,12.3,12.3,0,0,0,3.25-8.79Z"/><path class="cls-4" d="M421.76,302.51a10.49,10.49,0,0,0-7.33,2.93c-3.11,2.93-3.49,8.3-3.49,12.31v17.13h-6.39V296.64h5.86l.53,6.77a11.92,11.92,0,0,1,11.49-7,18,18,0,0,1,2.94.23V303A17.64,17.64,0,0,0,421.76,302.51Z"/><path class="cls-4" d="M441.23,335.58c-5.63,0-8.06-3.34-8.06-9.44v-46h6.48v45.6c0,2.58.82,4,3.48,4a23.78,23.78,0,0,0,2.67,0v5.48A16.34,16.34,0,0,1,441.23,335.58Z"/><path class="cls-4" d="M485.77,318H458.5a14.24,14.24,0,0,0,3.72,9.67,10.94,10.94,0,0,0,14.25.24,8.33,8.33,0,0,0,2.29-4.2h6.3a14.22,14.22,0,0,1-5.86,9.53,17.86,17.86,0,0,1-9.82,2.94,16.54,16.54,0,0,1-12.82-5.87A21.89,21.89,0,0,1,451.78,316a23.45,23.45,0,0,1,2.94-12.34,16.55,16.55,0,0,1,14.66-8.06,15.42,15.42,0,0,1,11.72,5A19.81,19.81,0,0,1,486,314.23Zm-8.8-13.4a9.2,9.2,0,0,0-7.62-3.49c-7,0-10.44,5.69-10.59,11.35h20.53a13.47,13.47,0,0,0-2.44-7.86Z"/><path class="cls-4" d="M543.15,335.11V310.6c0-5.4-1.76-9.12-7.83-9.12a7.91,7.91,0,0,0-5.87,2.58,14.69,14.69,0,0,0-3.28,10.58v20.53h-6.48V310.66c0-5.4-1.58-9.12-7.74-9.12a8.16,8.16,0,0,0-6.57,3.43,17,17,0,0,0-2.58,9.73v20.53h-6.45V296.64H502l.62,5.46a11.74,11.74,0,0,1,10.82-6.46A11.2,11.2,0,0,1,524.88,303a12.73,12.73,0,0,1,11.73-7.31c8.8,0,12.87,5.63,12.87,14.17v25.33Z"/></g></g><g id="dark"><g id="dark-brace-left"><polygon class="cls-5" points="153.58 250.28 149.1 250.28 149.15 237.28 153.66 237.28 153.58 250.28"/><rect class="cls-5" x="149.07" y="127.35" width="4.51" height="12.95"/><polygon class="cls-6" points="37.82 188.75 33.34 188.75 149.07 140.3 153.56 140.3 37.82 188.75"/><polygon class="cls-5" points="153.66 237.28 149.15 237.28 33.34 188.75 37.82 188.75 153.66 237.28"/><polygon class="cls-6" points="21.5 180.83 17.02 180.83 151.61 123.46 156.12 123.46 21.5 180.83"/><polygon class="cls-5" points="156.12 254.14 151.61 254.14 15.26 196.03 19.77 196.03 156.12 254.14"/><path class="cls-7" d="M44.5,188.75l111.72,46.8v18.57L19.76,196V181.45l1.74-.62,134.67-57.37V142l-1.68.72Zm109.08,61.54V237.34L37.84,188.75,153.55,140.3v-13L22.3,183.26v11l131.28,56"/><polygon class="cls-8" points="19.77 181.45 15.26 181.45 17.02 180.83 21.5 180.83 19.77 181.45"/><rect class="cls-5" x="15.26" y="181.45" width="4.51" height="14.55"/></g><g id="dark-brace-right"><rect class="cls-5" x="601.88" y="181.73" width="4.51" height="11.06"/><polygon class="cls-6" points="475.13 248.78 470.63 248.78 601.88 192.76 606.38 192.76 475.13 248.78"/><polygon class="cls-5" points="606.38 181.73 601.88 181.73 470.63 125.84 475.13 125.84 606.38 181.73"/><polygon class="cls-6" points="473.37 233.76 468.87 233.76 579.79 187.25 584.27 187.25 473.37 233.76"/><rect class="cls-5" x="468.09" y="234.1" width="4.51" height="18.57"/><polygon class="cls-6" points="472.59 234.1 468.09 234.1 468.87 233.76 473.37 233.76 472.59 234.1"/><polygon class="cls-5" points="584.27 187.25 579.79 187.25 468.09 140.53 472.59 140.53 584.27 187.25"/><rect class="cls-5" x="468.09" y="121.93" width="4.51" height="18.57"/><path class="cls-7" d="M472.67,121.93,609,180v14.5L472.67,252.67V234.1l.78-.34,110.89-46.61L472.67,140.53Zm129.21,70.86,4.58-11.06-131.2-55.89v12.95L591.1,187.25,475.26,235.83v12.95l131.25-56"/></g><g id="dark-s"><g class="cls-9"><path class="cls-10" d="M287,243.32h-4.5A39.93,39.93,0,0,0,292.42,216h4.51A40.06,40.06,0,0,1,287,243.32"/></g><path class="cls-1" d="M287,243.32h-4.5A39.93,39.93,0,0,0,292.42,216h4.51A40.06,40.06,0,0,1,287,243.32Z"/><polygon class="cls-11" points="280.56 146.23 276.05 146.23 288.67 146.23 293.17 146.23 280.56 146.23"/><polygon class="cls-5" points="278.36 148.82 273.88 148.82 273.72 147.7 278.2 147.7 278.36 148.82"/><g class="cls-12"><path class="cls-10" d="M278.2,147.7h-4.48a39.3,39.3,0,0,0-7.33-17.82h4.48a38.93,38.93,0,0,1,7.33,17.82"/></g><path class="cls-1" d="M278.2,147.7h-4.48a39.3,39.3,0,0,0-7.33-17.82h4.48A38.93,38.93,0,0,1,278.2,147.7Z"/><g class="cls-13"><path class="cls-10" d="M296.93,215.94h-4.51c0-17.61-12.56-37.13-40.58-41.07h4.48c28.05,3.94,40.61,23.46,40.61,41.07"/></g><path class="cls-1" d="M296.93,215.94h-4.51c0-17.61-12.56-37.13-40.58-41.07h4.48C284.37,178.81,296.93,198.33,296.93,215.94Z"/><g class="cls-14"><path class="cls-10" d="M273.77,235.55h-4.5A24.87,24.87,0,0,0,277,216.82c0-13.93-10.36-24.37-26.68-26.59h4.51c16.21,2.22,26.67,12.66,26.67,26.59a24.92,24.92,0,0,1-7.77,18.73"/></g><path class="cls-1" d="M273.77,235.55h-4.5A24.87,24.87,0,0,0,277,216.82c0-13.93-10.36-24.37-26.68-26.59h4.51c16.21,2.22,26.67,12.66,26.67,26.59A24.92,24.92,0,0,1,273.77,235.55Z"/><g class="cls-15"><path class="cls-16" d="M239,246.53h-4.48a77.24,77.24,0,0,0,14.4-1.24h4.5A77.45,77.45,0,0,1,239,246.53"/><path class="cls-17" d="M253.44,245.29h-4.5a48.89,48.89,0,0,0,11.5-3.65h4.48a48.14,48.14,0,0,1-11.48,3.65"/><path class="cls-10" d="M264.92,241.64h-4.48a32.75,32.75,0,0,0,8.83-6.09h4.5a32.7,32.7,0,0,1-8.85,6.09"/></g><path class="cls-1" d="M239,246.53h-4.48c15.54,0,27.27-3.68,34.73-11h4.5C266.32,242.85,254.61,246.53,239,246.53Z"/><g class="cls-18"><path class="cls-16" d="M239,261.27h-4.56a86.48,86.48,0,0,0,16.29-1.51h4.48a86.48,86.48,0,0,1-16.29,1.51"/><path class="cls-17" d="M255.26,259.76h-4.48a67.39,67.39,0,0,0,16.39-5.18h4.51a67.61,67.61,0,0,1-16.42,5.18"/><path class="cls-10" d="M271.68,254.51h-4.51a47.75,47.75,0,0,0,15.31-11.22H287a48,48,0,0,1-15.3,11.22"/></g><path class="cls-1" d="M239,261.27h-4.56c20.38,0,37.86-6.56,48-18h4.5C276.86,254.71,259.35,261.27,239,261.27Z"/><g class="cls-19"><path class="cls-10" d="M270.87,129.88h-4.48c-7-8.33-18.9-12.94-33.43-12.94h4.5c14.53,0,26.42,4.63,33.41,12.94"/></g><path class="cls-1" d="M270.87,129.88h-4.48c-7-8.33-18.9-12.94-33.43-12.94h4.5C252,116.91,263.88,121.6,270.87,129.88Z"/><g class="cls-20"><path class="cls-10" d="M293.17,146.23h-4.38a48,48,0,0,0-11-26.08c-9.42-11.24-25.71-17.67-44.67-17.67h4.5c19,0,35.23,6.43,44.68,17.67a48.11,48.11,0,0,1,11,26.08"/></g><path class="cls-1" d="M293.17,146.23h-4.38a48,48,0,0,0-11-26.08c-9.42-11.24-25.71-17.67-44.67-17.67h4.5c19,0,35.23,6.43,44.68,17.67A48.11,48.11,0,0,1,293.17,146.23Z"/><polygon class="cls-5" points="256.35 174.87 251.84 174.87 223.12 170.88 227.62 170.88 256.35 174.87"/><polygon class="cls-5" points="254.87 190.23 250.36 190.23 221.07 186.24 225.58 186.24 254.87 190.23"/><g class="cls-21"><path class="cls-10" d="M227.62,170.8h-4.5c-20.72-2.77-30.38-11.37-30.38-27.06,0-8.37,4.45-16.26,12.59-22.19a31.1,31.1,0,0,1,5.17-3.16H215a30.79,30.79,0,0,0-5.18,3.16c-8.14,5.93-12.59,13.82-12.59,22.19,0,15.69,9.63,24.29,30.38,27.06"/><path class="cls-17" d="M215.06,118.46h-4.48a39.07,39.07,0,0,1,9.66-3h4.51a39.29,39.29,0,0,0-9.69,3"/><path class="cls-16" d="M224.75,115.41h-4.51A67.88,67.88,0,0,1,233,114.32h4.5a67.7,67.7,0,0,0-12.71,1.09"/></g><path class="cls-1" d="M227.62,170.8h-4.5c-20.72-2.77-30.38-11.37-30.38-27.06,0-8.37,4.45-16.26,12.59-22.19,6.75-5,15.53-7.31,27.63-7.31h4.5c-12.09,0-20.9,2.31-27.63,7.31-8.13,5.93-12.59,13.82-12.59,22.19C197.24,159.51,206.88,168.21,227.62,170.8Z"/><g class="cls-22"><path class="cls-10" d="M195.56,114.94h-4.48a50.21,50.21,0,0,1,13.24-9.06h4.5a51,51,0,0,0-13.26,9.06"/><path class="cls-17" d="M208.8,105.88h-4.51a59.32,59.32,0,0,1,14.53-4.69h4.5a58.82,58.82,0,0,0-14.52,4.69"/><path class="cls-16" d="M223.32,101.19h-4.45A75.38,75.38,0,0,1,233,99.89h4.51a75.3,75.3,0,0,0-14.14,1.3"/></g><path class="cls-1" d="M195.56,114.94h-4.48c10.36-9.84,24.76-15,41.9-15h4.51C220.32,99.89,205.92,105.1,195.56,114.94Z"/><g class="cls-23"><path class="cls-10" d="M239,249.15h-4.48c-15.72,0-28-4.28-36.54-12.64a38.22,38.22,0,0,1-11.5-23.31H191a38.38,38.38,0,0,0,11.48,23.31c8.57,8.36,20.71,12.64,36.54,12.64"/></g><path class="cls-1" d="M239,249.15h-4.48c-15.72,0-28-4.28-36.54-12.64a38.22,38.22,0,0,1-11.5-23.31H191a38.38,38.38,0,0,0,11.48,23.31C211.1,244.87,223.32,249.15,239,249.15Z"/><g class="cls-24"><path class="cls-10" d="M239,263.83h-4.56c-21.5,0-39.52-7.12-50.81-20h4.5c11.27,13,29.32,20,50.79,20"/></g><path class="cls-1" d="M239,263.83h-4.56c-21.5,0-39.52-7.12-50.81-20h4.5C199.45,256.71,217.5,263.83,239,263.83Z"/><g class="cls-25"><path class="cls-10" d="M181.86,145.4h-4.43a40.89,40.89,0,0,1,13.68-30.46h4.45a41,41,0,0,0-13.67,30.46"/></g><path class="cls-1" d="M181.86,145.4h-4.43a40.89,40.89,0,0,1,13.68-30.46h4.45A41,41,0,0,0,181.86,145.4Z"/><g class="cls-26"><path class="cls-10" d="M225.58,186.34h-4.51c-15.85-1.94-27.61-7.25-34.94-15.74a37.25,37.25,0,0,1-8.7-25.2h4.48a37.26,37.26,0,0,0,8.78,25.09c7.33,8.5,19.06,13.81,34.94,15.75"/></g><path class="cls-1" d="M225.58,186.34h-4.51c-15.85-1.94-27.61-7.25-34.94-15.74a37.25,37.25,0,0,1-8.7-25.2h4.48a37.26,37.26,0,0,0,8.78,25.09C198,179,209.7,184.3,225.58,186.34Z"/><g class="cls-27"><path class="cls-10" d="M188.18,243.78h-4.51A47.45,47.45,0,0,1,171,211.93h4.5a47.35,47.35,0,0,0,12.72,31.85"/></g><path class="cls-1" d="M188.18,243.78h-4.51A47.45,47.45,0,0,1,171,211.93h4.5A47.35,47.35,0,0,0,188.18,243.78Z"/><polygon class="cls-5" points="175.47 211.93 170.96 211.93 170.93 210.63 175.44 210.63 175.47 211.93"/><polygon class="cls-11" points="175.44 210.63 170.93 210.63 188.83 210.63 193.33 210.63 175.44 210.63"/><path class="cls-7" d="M299.49,215.92A42.67,42.67,0,0,1,288.87,245c-10.59,12-28.8,18.83-49.9,18.83s-39.52-7.12-50.79-20a47.33,47.33,0,0,1-12.72-31.85v-1.29h17.9v1.19a35.45,35.45,0,0,0,10.8,22.79c8.08,7.92,19.79,11.91,34.78,11.91,15.54,0,27.3-3.68,34.76-11a25,25,0,0,0,7.77-18.73c0-13.93-10.36-24.37-26.68-26.59l-29.21-3.89c-15.88-1.94-27.61-7.25-34.94-15.74a37.28,37.28,0,0,1-8.78-25.1,41,41,0,0,1,13.7-30.56c10.36-9.84,24.79-15,41.93-15,19.68,0,36.67,6.76,46.62,18.57a50.69,50.69,0,0,1,11.73,29v1.39h-17.4l-.16-1.11A39.15,39.15,0,0,0,271,130c-7-8.34-18.88-13-33.41-13-11.68,0-19.76,2.1-26.15,6.81-7.54,5.52-11.53,12.49-11.53,20.1,0,9.66,3.21,21.16,28.18,24.5l28.72,4C286.21,176.45,299.49,197.19,299.49,215.92ZM287,243.32A40.06,40.06,0,0,0,296.93,216c0-17.61-12.56-37.14-40.61-41.07l-28.7-4.1c-20.72-2.77-30.38-11.37-30.38-27.06,0-8.37,4.46-16.26,12.59-22.19,6.73-5,15.54-7.31,27.63-7.31,15.28,0,27.87,5,35.43,14a42.08,42.08,0,0,1,7.77,18h12.62a48.15,48.15,0,0,0-11-26.08c-9.45-11.24-25.71-17.66-44.67-17.66-16.47,0-30.38,4.94-40.2,14.37a38.21,38.21,0,0,0-12.94,28.49,34.8,34.8,0,0,0,8.13,23.31c6.89,8,18.13,12.95,33.33,14.86l29.24,4.22c17.56,2.41,28.93,13.86,28.93,29.16a27.24,27.24,0,0,1-8.52,20.54c-8,7.77-20.28,11.79-36.57,11.79-15.7,0-28-4.28-36.55-12.64A38.42,38.42,0,0,1,191,213.2H178A44.72,44.72,0,0,0,190,242c10.8,12.4,28.15,19.24,48.9,19.24s37.88-6.55,48-18"/></g><g id="dark-2" data-name="dark"><rect class="cls-5" x="440.71" y="157.34" width="4.51" height="99.92"/><polygon class="cls-11" points="432.69 257.28 428.18 257.28 440.71 257.28 445.19 257.28 432.69 257.28"/><rect class="cls-5" x="425.64" y="158.24" width="4.51" height="101.6"/><g class="cls-28"><path class="cls-10" d="M445.19,157.34h-4.48c0-34.86-18.93-54.86-51.79-54.86h4.5c33,0,51.8,20,51.8,54.86"/></g><path class="cls-1" d="M445.19,157.34h-4.48c0-34.86-18.93-54.86-51.79-54.86h4.5C426.29,102.48,445.19,122.48,445.19,157.34Z"/><g class="cls-29"><path class="cls-10" d="M430.15,158.24h-4.51c0-27.81-12.33-41.43-37.68-41.43h4.43c25.38,0,37.71,13.51,37.71,41.43"/></g><path class="cls-1" d="M430.15,158.24h-4.51c0-27.81-12.33-41.43-37.68-41.43h4.43C417.82,116.91,430.15,130.43,430.15,158.24Z"/><g class="cls-30"><path class="cls-10" d="M343.57,128h-4.48a56.19,56.19,0,0,1,24.63-22.32h4.5A56.29,56.29,0,0,0,343.57,128"/><path class="cls-17" d="M368.22,105.67h-4.5a59.17,59.17,0,0,1,14.42-4.79h4.51a59.31,59.31,0,0,0-14.43,4.76"/><path class="cls-16" d="M382.65,100.88h-4.51a56.22,56.22,0,0,1,10.67-1h4.51a56.22,56.22,0,0,0-10.67,1"/></g><path class="cls-1" d="M343.57,128h-4.48a58.29,58.29,0,0,1,49.72-28.1h4.51A58.35,58.35,0,0,0,343.57,128Z"/><rect class="cls-5" x="336.53" y="181.89" width="4.51" height="75.39"/><g class="cls-31"><path class="cls-10" d="M341,181.89h-4.5c0-31.78,10.85-53.92,29.88-63h4.51c-19,9.07-29.89,31.21-29.89,63"/><path class="cls-17" d="M370.92,119h-4.43a45.49,45.49,0,0,1,11.19-3.63H382A44.94,44.94,0,0,0,370.84,119"/><path class="cls-16" d="M382,115.28h-4.51a53.06,53.06,0,0,1,10.36-1h4.51a52.92,52.92,0,0,0-10.36,1"/></g><path class="cls-1" d="M341,181.89h-4.5c0-42.29,19.24-67.57,51.43-67.57h4.43C360.27,114.32,341,139.73,341,181.89Z"/><rect class="cls-5" x="336.53" y="37.09" width="4.51" height="102.51"/><polygon class="cls-11" points="328.47 257.28 323.99 257.28 336.52 257.28 341.03 257.28 328.47 257.28"/><rect class="cls-5" x="321.4" y="37.09" width="4.51" height="222.75"/><path class="cls-7" d="M343.57,37.09V128a58.35,58.35,0,0,1,49.75-28.1c34.6,0,54.39,21,54.39,57.45V259.87H430.1V158.24c0-27.81-12.33-41.43-37.71-41.43-45.32,0-48.87,49.72-48.87,65v78H325.86V37h2.59V257.17H341V181.89c0-42.29,19.24-67.57,51.4-67.57,26.7,0,40.25,14.79,40.25,44v99h12.51v-100c0-34.86-18.91-54.86-51.8-54.86-21.39,0-41.88,13-49.83,31.44L341,139.6V37.09Z"/></g></g><g id="light"><g id="light-brace-left"><polygon class="cls-32" points="152.32 246.09 147.84 246.09 147.89 233.08 152.4 233.08 152.32 246.09"/><rect class="cls-32" x="147.82" y="123.15" width="4.51" height="12.95"/><polygon class="cls-33" points="36.56 184.55 32.08 184.55 147.82 136.09 152.3 136.09 36.56 184.55"/><polygon class="cls-32" points="152.4 233.08 147.89 233.08 32.08 184.55 36.56 184.55 152.4 233.08"/><polygon class="cls-33" points="20.24 176.63 15.76 176.63 150.35 119.26 154.86 119.26 20.24 176.63"/><polygon class="cls-32" points="154.86 249.94 150.35 249.94 14 191.83 18.51 191.83 154.86 249.94"/><path class="cls-34" d="M43.24,184.55,155,231.35v18.57L18.51,191.8V177.25l1.73-.62,134.67-57.37V137.8l-1.68.73Zm109.08,61.53V233.14L36.58,184.55,152.3,136.1V123.15L21,179.06v11l131.28,56"/><polygon class="cls-35" points="18.51 177.25 14 177.25 15.76 176.63 20.24 176.63 18.51 177.25"/><rect class="cls-32" x="14" y="177.25" width="4.51" height="14.55"/></g><g id="light-brace-right"><rect class="cls-32" x="600.62" y="177.53" width="4.51" height="11.06"/><polygon class="cls-33" points="473.87 244.58 469.37 244.58 600.62 188.56 605.13 188.56 473.87 244.58"/><polygon class="cls-32" points="605.13 177.53 600.62 177.53 469.37 121.64 473.87 121.64 605.13 177.53"/><polygon class="cls-33" points="472.11 229.56 467.61 229.56 578.53 183.05 583.01 183.05 472.11 229.56"/><rect class="cls-32" x="466.83" y="229.9" width="4.51" height="18.57"/><polygon class="cls-33" points="471.34 229.9 466.83 229.9 467.61 229.56 472.11 229.56 471.34 229.9"/><polygon class="cls-32" points="583.01 183.05 578.53 183.05 466.83 136.33 471.34 136.33 583.01 183.05"/><rect class="cls-32" x="466.83" y="117.73" width="4.51" height="18.57"/><path class="cls-34" d="M471.41,117.73,607.74,175.8v14.5L471.41,248.47V229.9l.78-.34,110.9-46.62L471.41,136.33ZM605.2,188.56v-11L474,121.64v13l115.85,48.46L474,231.63v13l131.26-56"/></g><g id="light-s"><g class="cls-36"><path class="cls-37" d="M285.72,239.12h-4.5a39.89,39.89,0,0,0,9.94-27.35h4.51a40.06,40.06,0,0,1-9.95,27.35"/></g><path class="cls-2" d="M285.72,239.12h-4.5a39.89,39.89,0,0,0,9.94-27.35h4.51A40.06,40.06,0,0,1,285.72,239.12Z"/><polygon class="cls-38" points="279.3 142.03 274.8 142.03 287.41 142.03 291.91 142.03 279.3 142.03"/><polygon class="cls-32" points="277.1 144.62 272.62 144.62 272.46 143.5 276.94 143.5 277.1 144.62"/><g class="cls-39"><path class="cls-37" d="M276.94,143.5h-4.48a39.19,39.19,0,0,0-7.33-17.82h4.48a38.93,38.93,0,0,1,7.33,17.82"/></g><path class="cls-2" d="M276.94,143.5h-4.48a39.19,39.19,0,0,0-7.33-17.82h4.48A38.93,38.93,0,0,1,276.94,143.5Z"/><g class="cls-40"><path class="cls-37" d="M295.67,211.74h-4.51c0-17.61-12.56-37.13-40.58-41.07h4.48c28.05,3.94,40.61,23.46,40.61,41.07"/></g><path class="cls-2" d="M295.67,211.74h-4.51c0-17.61-12.56-37.13-40.58-41.07h4.48C283.11,174.61,295.67,194.13,295.67,211.74Z"/><g class="cls-41"><path class="cls-37" d="M272.52,231.35H268a24.87,24.87,0,0,0,7.77-18.73c0-13.93-10.36-24.37-26.68-26.59h4.51c16.21,2.22,26.67,12.66,26.67,26.59a25,25,0,0,1-7.76,18.73"/></g><path class="cls-2" d="M272.52,231.35H268a24.87,24.87,0,0,0,7.77-18.73c0-13.93-10.36-24.37-26.68-26.59h4.51c16.21,2.22,26.67,12.66,26.67,26.59A25,25,0,0,1,272.52,231.35Z"/><g class="cls-42"><path class="cls-43" d="M237.76,242.33h-4.48a77.24,77.24,0,0,0,14.4-1.24h4.51a77.55,77.55,0,0,1-14.43,1.24"/><path class="cls-44" d="M252.19,241.09h-4.51a48.46,48.46,0,0,0,11.5-3.66h4.48a47.78,47.78,0,0,1-11.47,3.66"/><path class="cls-37" d="M263.66,237.43h-4.48a32.5,32.5,0,0,0,8.83-6.08h4.51a32.64,32.64,0,0,1-8.86,6.08"/></g><path class="cls-2" d="M237.76,242.33h-4.48c15.54,0,27.27-3.68,34.73-11h4.51C265.06,238.65,253.35,242.33,237.76,242.33Z"/><g class="cls-45"><path class="cls-43" d="M237.71,257.07h-4.56a87.24,87.24,0,0,0,16.29-1.51h4.48a86.41,86.41,0,0,1-16.29,1.51"/><path class="cls-44" d="M254,255.56h-4.48a67.39,67.39,0,0,0,16.39-5.18h4.51A67.61,67.61,0,0,1,254,255.56"/><path class="cls-37" d="M270.42,250.31h-4.51a47.75,47.75,0,0,0,15.31-11.22h4.5a48,48,0,0,1-15.3,11.22"/></g><path class="cls-2" d="M237.71,257.07h-4.56c20.38,0,37.86-6.56,48-18h4.51C275.6,250.51,258.09,257.07,237.71,257.07Z"/><g class="cls-46"><path class="cls-37" d="M269.61,125.68h-4.48c-7-8.33-18.9-12.94-33.43-12.94h4.51c14.53,0,26.41,4.63,33.4,12.94"/></g><path class="cls-2" d="M269.61,125.68h-4.48c-7-8.33-18.9-12.94-33.43-12.94h4.51C250.74,112.71,262.62,117.4,269.61,125.68Z"/><g class="cls-47"><path class="cls-37" d="M291.91,142h-4.37a48,48,0,0,0-11-26.08c-9.42-11.24-25.71-17.67-44.67-17.67h4.51c18.95,0,35.22,6.43,44.67,17.67A48,48,0,0,1,292,142"/></g><path class="cls-2" d="M291.91,142h-4.37a48,48,0,0,0-11-26.08c-9.42-11.24-25.71-17.67-44.67-17.67h4.51c18.95,0,35.22,6.43,44.67,17.67A48.11,48.11,0,0,1,291.91,142Z"/><polygon class="cls-32" points="255.09 170.67 250.58 170.67 221.86 166.68 226.37 166.68 255.09 170.67"/><polygon class="cls-32" points="253.61 186.03 249.1 186.03 219.81 182.04 224.32 182.04 253.61 186.03"/><g class="cls-48"><path class="cls-37" d="M226.36,166.6h-4.5c-20.72-2.77-30.38-11.37-30.38-27.06,0-8.37,4.45-16.26,12.59-22.2a31.4,31.4,0,0,1,5.18-3.15h4.48a31.4,31.4,0,0,0-5.18,3.15c-8.13,5.94-12.59,13.83-12.59,22.2,0,15.69,9.63,24.29,30.38,27.06"/><path class="cls-44" d="M213.8,114.26h-4.48a39.2,39.2,0,0,1,9.66-3.05h4.51a39.29,39.29,0,0,0-9.69,3.05"/><path class="cls-43" d="M223.49,111.21H219a67,67,0,0,1,12.72-1.09h4.51a67,67,0,0,0-12.72,1.09"/></g><path class="cls-2" d="M226.36,166.6h-4.5c-20.72-2.77-30.38-11.37-30.38-27.06,0-8.37,4.45-16.26,12.59-22.2,6.76-5,15.54-7.3,27.63-7.3h4.51c-12.1,0-20.9,2.31-27.64,7.3-8.13,5.94-12.58,13.83-12.58,22.2C196,155.31,205.62,164,226.36,166.6Z"/><g class="cls-49"><path class="cls-37" d="M194.3,110.74h-4.48a50.21,50.21,0,0,1,13.24-9.06h4.5a51,51,0,0,0-13.26,9.06"/><path class="cls-44" d="M207.54,101.68H203A58.89,58.89,0,0,1,217.56,97h4.51a58.89,58.89,0,0,0-14.53,4.69"/><path class="cls-43" d="M222.07,97h-4.46a75.38,75.38,0,0,1,14.14-1.3h4.51A75.3,75.3,0,0,0,222.12,97"/></g><path class="cls-2" d="M194.3,110.74h-4.48c10.36-9.84,24.76-15,41.91-15h4.5C219.06,95.69,204.66,100.9,194.3,110.74Z"/><g class="cls-50"><path class="cls-37" d="M237.76,245h-4.48c-15.72,0-28-4.28-36.54-12.64A38.22,38.22,0,0,1,185.24,209h4.5a38.38,38.38,0,0,0,11.48,23.31c8.57,8.36,20.72,12.64,36.54,12.64"/></g><path class="cls-2" d="M237.76,245h-4.48c-15.72,0-28-4.28-36.54-12.64A38.22,38.22,0,0,1,185.24,209h4.5a38.38,38.38,0,0,0,11.48,23.31C209.84,240.67,222.07,245,237.76,245Z"/><g class="cls-51"><path class="cls-37" d="M237.71,259.63h-4.56c-21.5,0-39.52-7.12-50.81-20h4.5c11.27,12.95,29.32,20,50.79,20"/></g><path class="cls-2" d="M237.71,259.63h-4.56c-21.5,0-39.52-7.12-50.81-20h4.5C198.19,252.51,216.24,259.63,237.71,259.63Z"/><g class="cls-52"><path class="cls-37" d="M180.6,141.2h-4.43a40.93,40.93,0,0,1,13.68-30.46h4.45a41,41,0,0,0-13.67,30.46"/></g><path class="cls-2" d="M180.6,141.2h-4.43a40.93,40.93,0,0,1,13.68-30.46h4.45A41,41,0,0,0,180.6,141.2Z"/><g class="cls-53"><path class="cls-37" d="M224.32,182.14h-4.51c-15.85-1.94-27.6-7.25-34.93-15.74a37.31,37.31,0,0,1-8.71-25.2h4.48a37.31,37.31,0,0,0,8.78,25.09c7.33,8.5,19.07,13.81,34.94,15.75"/></g><path class="cls-2" d="M224.32,182.14h-4.51c-15.85-1.94-27.6-7.25-34.93-15.74a37.31,37.31,0,0,1-8.71-25.2h4.48a37.31,37.31,0,0,0,8.78,25.09C196.71,174.79,208.44,180.1,224.32,182.14Z"/><g class="cls-54"><path class="cls-37" d="M186.92,239.58h-4.5a47.41,47.41,0,0,1-12.72-31.85h4.51a47.29,47.29,0,0,0,12.71,31.85"/></g><path class="cls-2" d="M186.92,239.58h-4.5a47.41,47.41,0,0,1-12.72-31.85h4.51A47.29,47.29,0,0,0,186.92,239.58Z"/><polygon class="cls-32" points="174.21 207.73 169.7 207.73 169.67 206.44 174.18 206.44 174.21 207.73"/><polygon class="cls-38" points="174.18 206.44 169.67 206.44 187.57 206.44 192.08 206.44 174.18 206.44"/><path class="cls-34" d="M298.23,211.72a42.62,42.62,0,0,1-10.62,29.08c-10.59,12-28.79,18.83-49.9,18.83s-39.52-7.12-50.79-20a47.29,47.29,0,0,1-12.71-31.85v-1.3H192.1v1.2a35.45,35.45,0,0,0,10.8,22.79c8.08,7.92,19.79,11.91,34.78,11.91,15.54,0,27.3-3.68,34.76-11a25,25,0,0,0,7.77-18.73c0-13.93-10.36-24.37-26.68-26.59l-29.21-3.89c-15.88-1.94-27.61-7.25-34.94-15.74a37.3,37.3,0,0,1-8.78-25.1,41,41,0,0,1,13.7-30.56c10.36-9.84,24.79-15,41.93-15,19.68,0,36.67,6.76,46.62,18.57a50.62,50.62,0,0,1,11.73,29v1.4h-17.4l-.16-1.11a38.93,38.93,0,0,0-7.33-17.82c-7-8.34-18.88-13-33.41-13-11.68,0-19.76,2.1-26.15,6.81-7.54,5.52-11.53,12.49-11.53,20.1,0,9.66,3.21,21.16,28.18,24.5l28.72,4C285,172.25,298.23,193,298.23,211.72Zm-12.51,27.4a40.06,40.06,0,0,0,9.95-27.35c0-17.61-12.56-37.14-40.61-41.07l-28.7-4.1C205.65,163.83,196,155.23,196,139.54c0-8.37,4.45-16.26,12.58-22.2,6.74-5,15.54-7.3,27.64-7.3,15.28,0,27.86,5,35.42,14A42,42,0,0,1,279.4,142H292a48,48,0,0,0-11-26.08c-9.45-11.24-25.71-17.66-44.67-17.66-16.47,0-30.38,4.94-40.19,14.37a38.19,38.19,0,0,0-13,28.49,34.8,34.8,0,0,0,8.13,23.31c6.89,8,18.13,13,33.33,14.86l29.24,4.22c17.56,2.41,28.93,13.86,28.93,29.16a27.24,27.24,0,0,1-8.52,20.54C266.3,240.93,254,245,237.71,245c-15.7,0-28-4.28-36.54-12.64A38.38,38.38,0,0,1,189.69,209H176.74a44.77,44.77,0,0,0,12,28.8c10.8,12.4,28.15,19.24,48.9,19.24s37.89-6.55,48-18"/></g><g id="light-h"><rect class="cls-32" x="439.46" y="153.14" width="4.51" height="99.92"/><polygon class="cls-38" points="431.43 253.08 426.92 253.08 439.45 253.08 443.94 253.08 431.43 253.08"/><rect class="cls-32" x="424.38" y="154.04" width="4.51" height="101.6"/><g class="cls-55"><path class="cls-37" d="M443.94,153.14h-4.48c0-34.86-18.94-54.86-51.8-54.86h4.51c33,0,51.79,20,51.79,54.86"/></g><path class="cls-2" d="M443.94,153.14h-4.48c0-34.86-18.94-54.86-51.8-54.86h4.51C425,98.28,443.94,118.28,443.94,153.14Z"/><g class="cls-56"><path class="cls-37" d="M428.89,154h-4.51c0-27.81-12.33-41.43-37.68-41.43h4.43c25.38,0,37.71,13.51,37.71,41.43"/></g><path class="cls-2" d="M428.89,154h-4.51c0-27.81-12.33-41.43-37.68-41.43h4.43C416.56,112.71,428.89,126.23,428.89,154Z"/><g class="cls-57"><path class="cls-37" d="M342.31,123.79h-4.48a56.25,56.25,0,0,1,24.63-22.32H367a56.32,56.32,0,0,0-24.66,22.32"/><path class="cls-44" d="M367,101.47h-4.51a59.1,59.1,0,0,1,14.43-4.79h4.5A59.1,59.1,0,0,0,367,101.44"/><path class="cls-43" d="M381.39,96.68h-4.5a56.07,56.07,0,0,1,10.67-1h4.5a56.22,56.22,0,0,0-10.67,1"/></g><path class="cls-2" d="M342.31,123.79h-4.48a58.29,58.29,0,0,1,49.73-28.1h4.5A58.35,58.35,0,0,0,342.31,123.79Z"/><rect class="cls-32" x="335.27" y="177.69" width="4.51" height="75.39"/><g class="cls-58"><path class="cls-37" d="M339.77,177.69h-4.5c0-31.78,10.85-53.92,29.88-63h4.51c-19,9.07-29.89,31.21-29.89,63"/><path class="cls-44" d="M369.66,114.81h-4.43a45.49,45.49,0,0,1,11.19-3.63h4.35a44.66,44.66,0,0,0-11.19,3.63"/><path class="cls-43" d="M380.77,111.08h-4.51a53.06,53.06,0,0,1,10.36-1h4.51a52.92,52.92,0,0,0-10.36,1"/></g><path class="cls-2" d="M339.77,177.69h-4.5c0-42.29,19.24-67.57,51.43-67.57h4.43C359,110.12,339.77,135.53,339.77,177.69Z"/><rect class="cls-32" x="335.27" y="32.89" width="4.51" height="102.51"/><polygon class="cls-38" points="327.21 253.08 322.73 253.08 335.27 253.08 339.77 253.08 327.21 253.08"/><rect class="cls-32" x="320.14" y="32.89" width="4.51" height="222.75"/><path class="cls-34" d="M342.31,32.89v90.9a58.35,58.35,0,0,1,49.75-28.1c34.6,0,54.39,21,54.39,57.45V255.67H428.84V154c0-27.81-12.33-41.43-37.71-41.43-45.32,0-48.87,49.72-48.87,65v78H324.6V32.84h2.59V253h12.56V177.69c0-42.29,19.24-67.57,51.41-67.57,26.7,0,40.24,14.79,40.24,44v99h12.51v-100c0-34.86-18.91-54.86-51.8-54.86-21.39,0-41.87,13-49.82,31.44l-2.59,5.68V32.89Z"/></g></g></g></svg>